<?xml version="1.0" encoding="UTF-8"?>
<svg id="Layer_1" data-name="Layer 1" xmlns="http://www.w3.org/2000/svg" viewBox="0 0 175.65 208.22">
  <defs>
    <style>
      .cls-1 {
        opacity: .1;
      }

      .cls-1, .cls-2, .cls-3, .cls-4, .cls-5, .cls-6 {
        stroke-width: 0px;
      }

      .cls-1, .cls-6 {
        fill: #101211;
      }

      .cls-2 {
        fill: #89cdf2;
      }

      .cls-3 {
        fill: #253860;
      }

      .cls-4 {
        fill: #fdfdfb;
      }

      .cls-5 {
        fill: #d62d4a;
      }
    </style>
  </defs>
  <ellipse class="cls-1" cx="86.49" cy="198.51" rx="56.64" ry="9.71"/>
  <g>
    <path class="cls-6" d="m79.29,198.86c-.09-.01-.17-.03-.26-.05-.73-.21-1.22-.97-1.25-1.73s.33-1.5.83-2.07c.82-.94,1.98-1.51,3.11-2.02,3.49-1.59,7.08-2.97,10.74-4.14.86-.28,1.74-.55,2.5-1.05,1.22-.82,1.36-1.8,1.47-3.15.28-3.69,4.47-4.84,7.56-3.86,1.3.41,2.49,1.27,3.15,2.47.37.67.56,1.43.75,2.17,1.05,4.18,2.31,8.28,3.38,12.46-10.43.26-20.89.62-31.29.99-.23,0-.46.02-.68-.01Z"/>
    <path class="cls-6" d="m51.25,199.79c-.09-.01-.17-.03-.26-.05-.73-.21-1.22-.97-1.25-1.73-.03-.76.33-1.5.83-2.07.82-.94,1.98-1.51,3.11-2.02,3.49-1.59,7.08-2.97,10.74-4.14.86-.28,1.74-.55,2.5-1.05,1.22-.82,1.36-1.8,1.47-3.15.28-3.69,4.47-4.84,7.56-3.86,1.3.41,2.49,1.27,3.15,2.47.37.67.56,1.43.74,2.17,1.05,4.18,2.31,8.28,3.38,12.46-10.43.26-20.89.62-31.29.99-.23,0-.46.02-.68-.01Z"/>
    <path class="cls-5" d="m112.72,129.42c14.34,5.68,30.79,5.06,46.42,4.32.97-.05,2.05-.06,2.79.58.85.74.9,2.03.77,3.15-1.09,9.57-9.64,16.8-18.72,19.99-3.41,1.2-7.14,2.08-9.68,4.64-3.81,3.83-4.02,10.52-8.44,13.62-3.38,2.37-7.98,1.74-11.94.59-3.96-1.15-8.04-2.74-12.09-1.95-2.43.47-4.6,1.76-6.93,2.59-3.74,1.34-7.82,1.48-11.76.97-4.46-.58-8.82-1.98-12.78-4.11-3.51-1.89-6.75-4.36-10.56-5.54-6.57-2.04-13.98.01-20.4-2.46-6.11-2.36-9.97-8.24-14.66-12.81-4.15-4.04-9.17-7.18-14.63-9.15,7.26,1.3,14.59,2.61,21.97,2.35,4.74-.17,9.51-1.02,13.9-2.86,1.95-.82,4.49-1.86,5.99-3.39,1.38-1.4,2.54-3.45,3.66-5.09,10.89-15.9,9.7-37.05,16.72-55,.59-1.5,1.26-3.01,2.42-4.13,1.16-1.11,2.92-1.74,4.42-1.15,1.25.5,2.06,1.71,2.78,2.85,4.99,7.9,8.89,16.49,11.48,25.47,1.42,4.94,2.34,10.03,4.06,14.88,1.46,4.12,5.49,6.72,9.2,8.78,1.95,1.09,3.96,2.03,6.01,2.84Z"/>
    <path class="cls-3" d="m62.98,148.94c15.6,2.51,31.73-.29,46.18-8.03-3.76-19.01-7.79-37.94-12.1-56.77-.17-.76-.37-1.56-.85-2.07-.51-.53-1.21-.62-1.87-.68-5.1-.5-10.27-.99-15.31.11-2.24.49-4.28,1.41-6.37,2.5-1.83.96-4.24.7-5.6,2.74-3.28,4.93-2.7,13.48-3.11,19.45-.97,14.21-1,28.49-.97,42.75Z"/>
    <path class="cls-3" d="m90.12,160.84c-1.21-6.86-1.93-13.78-2.36-20.72-.16-2.49-1.63-6.78-.35-9.12,2.18-3.98,9.83-3.62,13.77-2.82.9.18,1.85.46,2.42,1.13.56.65.64,1.53.7,2.35.63,8.77.55,17.9,1.99,26.56,1.54,9.24,3.59,27.53,3.59,27.53l-16.15.21s-2.14-16.78-3.61-25.12Z"/>
    <path class="cls-6" d="m124.57,97.71c-.61.83-1.24,1.66-1.85,2.49-1.26,1.69-2.53,3.38-4.02,4.88-.95.96-2.02,1.85-3.29,2.32-3.6,1.8-8.11-.98-11.37-2.38-4.05-1.74-7.89-3.93-11.5-6.45-1.85-1.29-3.5-2.87-4.76-4.75-.7-1.05-1.25-2.25-1.29-3.51-.04-1.26.49-2.59,1.55-3.27,2.45-1.57,6.18-.44,8.73.29,2.35.67,4.8,1.27,7.09,2.12,2.04.76,3.9,1.88,6.04,2.52.41.12.85.23,1.25.09.37-.13.64-.46.88-.77,2.35-3.08,4.33-6.44,5.88-9.99.12-.27.25-.56.49-.74.22-.16.49-.21.76-.24,3.94-.52,8.06.41,11.38,2.59,2.88,1.89.51,4.8-.77,7.02-1.56,2.71-3.37,5.26-5.22,7.78Z"/>
    <path class="cls-6" d="m33.35,97.71c.61.83,1.24,1.66,1.85,2.49,1.26,1.69,2.53,3.38,4.02,4.88.95.96,2.02,1.85,3.29,2.32,3.6,1.8,8.11-.98,11.37-2.38,4.05-1.74,7.89-3.93,11.5-6.45,1.85-1.29,3.5-2.87,4.76-4.75.7-1.05,1.25-2.25,1.29-3.51.04-1.26-.49-2.59-1.55-3.27-2.45-1.57-6.18-.44-8.73.29-2.35.67-4.8,1.27-7.09,2.12-2.04.76-3.9,1.88-6.04,2.52-.41.12-.85.23-1.25.09-.37-.13-.64-.46-.88-.77-2.35-3.08-4.33-6.44-5.88-9.99-.12-.27-.25-.56-.49-.74-.22-.16-.49-.21-.76-.24-3.94-.52-8.06.41-11.38,2.59-2.88,1.89-.51,4.8.77,7.02,1.56,2.71,3.37,5.26,5.22,7.78Z"/>
    <path class="cls-3" d="m65.02,187.48l17.78.4s.04-33.63-.27-50.45c-.03-1.39-.09-2.88-.92-3.97-.88-1.16-2.4-1.56-3.82-1.76-3.23-.46-9.04-.96-11.65,1.62-2.15,2.13-1.13,6.83-1.13,9.61,0,9.62,0,28.87,0,28.87v15.67Z"/>
    <path class="cls-6" d="m104.47,139.37c-8.41-3.77-15.84-9.19-20.53-16.68-4.62-7.39-6.61-16.17-6.18-24.84.24-4.87,1.95-10.58,7.71-10.83,1.51-.07,2.91.1,4.21.49,6.34,1.9,9.35,8.66,11.45,14.35,3.23,8.76,9.58,15.95,17.57,20.8,6.77,4.11,14.53,6.49,22.41,7.36,3.93.44,7.88.51,11.83.54,7.73.07,15.75-.08,22.71-3.43-2.61,4.82-6.36,9.03-10.85,12.18-8.56,6-19.46,7.96-29.88,7.25-9.64-.65-20.7-2.82-30.45-7.2Z"/>
    <path class="cls-6" d="m59.96,146.09c-2.78,2.6-5.89,4.84-9.33,6.61-5.14,2.65-10.95,4.16-16.76,4.04-7.4-.15-14.95-2.97-21.06-7.14-6.29-4.3-11.29-10.74-12.82-18.17,6.27,2.82,12.83,5.18,19.67,5.97,6.94.8,14.9.04,20.86-3.86,3.46-2.26,6.72-4.83,9.72-7.66,4.26-4.01,8.05-8.79,10.45-14.2,2.64-5.96,2.31-12.6,4.13-18.78.82-2.77,3.6-4.76,6.47-4.93,2.9-.17,4.9,2.53,5.79,5.04,1.51,4.26,1.04,8.63.91,13-.16,5.42-1.38,10.77-3.11,15.9-3.01,8.91-7.95,17.64-14.93,24.16Z"/>
    <path class="cls-5" d="m77.88,104.33s-23.36-25.99-35.04-38.98c23.55-8.18,49.3-9.89,73.72-4.91,4.69.96,9.49,2.11,13.84,4.15-4.19,6.05-52.53,39.74-52.53,39.74Z"/>
    <path class="cls-6" d="m55,41.32c1.13-3.54,2.78-6.92,4.74-10.3,3.45-5.97,9.15-8.77,16.11-9.28.5-.04,1.04-.05,1.46.23.34.23.54.61.69.99,1.79,4.46-1.04,9.38-4.13,13.07-1.65,1.96-3.57,3.71-5.2,5.68-1.38,1.68-2.13,3.59-3.2,5.53-2.59,4.73-5.51,9.29-8.73,13.62-.23.3-.46.62-.8.79-.74.38-1.69-.09-2.12-.8-1.46-2.38-.45-6.3-.46-8.9-.03-3.77.58-7.26,1.65-10.61Z"/>
    <path class="cls-2" d="m56.95,48.67c-3.86,8.88-5.2,19.62-2.64,29.05,2.09,7.71,8.87,12.55,16.5,14.03,9.7,1.88,20.11-1.29,27.54-7.8,8.18-7.17,11.62-17.02,12.98-27.51.77-5.9,1.3-11.97-.12-17.75-1.42-5.78-5.13-11.3-10.68-13.46-9.45-3.68-21.23.1-29.23,5.6-6.37,4.38-11.24,10.69-14.34,17.83Z"/>
    <path class="cls-2" d="m135.09,70.67c-.06-.04-.12-.07-.18-.11-.07-.04-.77-.3-.77-.28-.05-.66-.44-1.27-1.01-1.61-.57-.33-1.3-.37-1.9-.1-.11-.53-.58-.96-1.1-1.08-.34-.08-1.39-.03-1.55.36.11-.25-.03-.55-.25-.72-.22-.17-.5-.23-.76-.28-1.81-.39-3.27-.72-5.09-.22-.51.14-1.09.5-1.01,1.02.05.31.31.52.57.7.38.26.84.42,1.26.62.47.23.84.55,1.22.88.1.09.11.25.11.39,0,.8-.18,1.6-.51,2.34-.29.66-.46,1.33-1.03,1.82-.29.25-.66.43-1.04.42-1.57-.04-1.64-2.3-2.51-3.18-.32-.32-.81-.52-1.23-.35-.49.19-.7.77-.81,1.28-.39,1.86.44,4.07,1.77,5.38.7.68,1.52,1.31,2.07,2.12.6.88.99,1.72,1.95,2.3,1.62.99,3.57,1.2,5.38.66,1.38-.42,2.34-1.09,3.32-2.15,1.26-1.35,2.6-2.66,3.37-4.37.5-1.12.94-2.53.86-3.78-.04-.64-.19-1.15-.63-1.63-.15-.16-.32-.31-.5-.43Z"/>
    <path class="cls-2" d="m25.94,69.23c.1,0,.2.02.3.06.35.12.64.48.56.84.27-1.27,2.38-1.04,3.19-.95.72.08.51-.09,1.15-.34.66-.25,1.66.11,2.2.48.17.11.33.25.51.34.25.12.53.16.77.29.35.19.57.56.68.94s.11.79.11,1.18c.01,1.48-.2,3.3.57,4.63.19.33.48.62.84.74,1.49.48,2.31-1.63,3.42-2.18.41-.2.94-.22,1.28.07.4.34.4.95.34,1.48-.24,1.88-1.76,3.69-3.45,4.49-.88.42-1.86.74-2.66,1.32-.86.63-1.5,1.29-2.6,1.53-2.76.6-6.12-.69-7.14-3.38-.44-1.16-.73-2.33-1.02-3.53-.1-.41-.73-2.46-.5-2.68-.69.68-1.48,1.25-2.34,1.7-.35.18-.72.34-1.12.35-.39,0-.81-.17-.99-.52-.14-.28-.11-.62-.04-.93.32-1.42,1.3-2.6,2.31-3.64.87-.9,1.54-1.76,2.8-2.17.25-.08.53-.14.79-.12Z"/>
    <path class="cls-6" d="m100.47,21.1c2.49.58,4.84,1.51,6.9,3.23,4.59,3.84,6.81,9.3,7.46,15.14.7,6.31.71,12.79-.3,19.06-.22,1.36-.44,3-.97,4.28-.48,1.17-1.44,1.42-2.62,1.84l-10,3.56c.04-1.99-.18-4.08,0-6.03.74-8.1.85-17.05-3.38-24.3-1.11-1.9-2.7-3.58-4.75-4.38-2.08-.81-4.42-.64-6.6-.11-5.99,1.45-11.28,4.16-16.65,7.09-1.22.64-4.5-11.69-4.66-12.63-.87-5.18-.69-10.71,2-15.36,1.56-2.7,3.85-4.9,6.24-6.9,2.92-2.44,6.18-4.69,9.92-5.36,3.73-.67,7.73.37,10.67,2.77,1.58,1.3,2.92,3.19,2.7,5.22-.25,2.37-2.74,4.12-5.13,3.98.88-1.04.74-2.7-.09-3.78-.83-1.08-2.21-1.63-3.56-1.76-2.08-.2-4.28.56-5.66,2.13-1.38,1.58-1.82,3.97-.92,5.86.92,1.94,2.97,3.06,4.98,3.81,4.53,1.67,9.72,1.55,14.43,2.66Z"/>
    <path class="cls-2" d="m105.85,68.91c1.64.68,4.67-.45,5.93-.93,2.67-1.02,5.09-2.71,7.07-4.77,4.83-5.02,7.99-11.8,9.22-18.64-1.82.03-3.36.69-5.07,1.12-6.4,1.61-12.47,3.61-16.03,9.63-1.27,2.15-2.07,4.58-2.35,7.06-.19,1.65-.72,5.72,1.23,6.53Z"/>
    <g>
      <path class="cls-4" d="m68.15,79.21c-.1-.02-.24-.02-.45-.05-.9-.12-1.83-.31-2.74-.2,1.03,1.88,2.39,3.63,3.47,5.34.1-.61.16-4.35.03-4.73-.09-.26-.15-.33-.31-.36Z"/>
      <path class="cls-4" d="m90.11,74.38c-.42.11-.83.27-1.23.42l-1.47.56c-.62.24-1.29.51-1.62,1.08-.03.06-.07.13-.06.19.11.73.82,1.43,1.23,2.04.21.31,1.07,1.63,1.41,2.16.18-.59.44-1.5.53-1.81.36-1.16.8-2.32,1.04-3.52.08-.37.17-.77.17-1.14Z"/>
    </g>
    <ellipse class="cls-6" cx="82.7" cy="56.56" rx="2.81" ry="5.83"/>
    <ellipse class="cls-6" cx="62.51" cy="57.34" rx="2.81" ry="5.83"/>
    <path class="cls-3" d="m77.5,48.43c.33.33.71.6,1.13.81,3.67,1.79,7.75-1.74,10.72-3.62,1.47-.93.54-2.59-.57-3.45-1.28-.99-3.41-1.21-4.96-1.02-1.92.24-3.69,1.18-5.35,2.18-.5.3-1.02.62-1.38,1.08-.6.76-.72,1.85-.39,2.76.17.48.46.91.81,1.27Z"/>
    <path class="cls-3" d="m66.51,45.3c-.88-.75-2.03-1.31-2.85-1.62-1.95-.74-3.77-.55-5.6.33-.62.3-1.27.62-1.72,1.14-.3.36,5.47,4.59,6.15,4.87,1.96.81,4.97.39,5.29-2.22.12-.96-.46-1.81-1.27-2.5Z"/>
    <path class="cls-3" d="m70.91,63.17c-2.27.87-4.3,2.09-5.88,3.7-.76.82-1.46,1.7-1.93,2.67-.48.94-.76,1.98-.59,2.84.03.2.11.46.16.58.06.15.15.13-.07.07-.09-.02-.19.02-.19.03,0,0,.05-.03.12-.1.14-.13.42-.46.67-.66,1.04-.89,2.27-1.49,3.54-1.79,2.56-.62,5.08-.17,7.37.57-2.43.07-4.84.13-6.92.92-1.03.41-1.99.94-2.71,1.68-.2.2-.31.33-.59.63-.14.14-.31.31-.58.45-.27.15-.68.25-1.06.18-.39-.07-.71-.28-.91-.48-.21-.21-.34-.41-.45-.62-.2-.42-.3-.74-.37-1.13-.23-1.53.24-2.93.9-4.08.69-1.14,1.54-2.13,2.56-2.93,2.01-1.6,4.49-2.48,6.92-2.54Z"/>
    <path class="cls-3" d="m109.17,62.67c1.69-.22,2.98-1.28,3.52-2.51.52-1.22.27-2.72-.5-3.68-.11-.14-.15-.14-.45-.54-.13-.18-.3-.58-.24-.97.05-.38.22-.61.33-.76.13-.16.21-.23.28-.3l.24-.23c.16-.15.32-.3.49-.44.69-.55,1.39-1.08,2.17-1.48,1.53-.84,3.24-1.35,4.95-1.37-1.49.83-2.86,1.68-4.09,2.67-.61.51-1.21,1-1.75,1.57l-.4.42-.2.21c-.07.07-.14.15-.14.16-.01.01.05-.03.07-.21.03-.18-.06-.37-.07-.38-.06-.07.21.22.36.4,1.3,1.64,1.41,4,.29,5.69-1.1,1.67-3.25,2.38-4.87,1.75Z"/>
    <path class="cls-3" d="m61.46,76.79c.66.47,1.42.79,2.15,1.11.35.15.75.24,1.13.36.38.12.77.22,1.16.3,1.55.37,3.12.58,4.69.65,3.14.12,6.29-.25,9.29-1.14,1.51-.42,2.98-.96,4.4-1.64,1.43-.65,2.78-1.44,4.07-2.33,2.55-1.81,4.76-4.16,6.22-7.09-.67,3.23-2.7,6.16-5.26,8.32-2.57,2.19-5.65,3.72-8.87,4.66-1.62.44-3.28.78-4.96.91-1.68.11-3.37.1-5.03-.14-1.67-.21-3.3-.65-4.84-1.27-.39-.15-.77-.32-1.14-.51-.37-.19-.75-.34-1.11-.59-.68-.47-1.36-.96-1.89-1.59Z"/>
  </g>
</svg>