<?xml version="1.0" encoding="UTF-8"?>
<svg id="Layer_1" data-name="Layer 1" xmlns="http://www.w3.org/2000/svg" xmlns:xlink="http://www.w3.org/1999/xlink" viewBox="0 0 177.65 212.38">
  <defs>
    <style>
      .cls-1 {
        fill: url(#Unnamed_Pattern_19);
      }

      .cls-1, .cls-2, .cls-3, .cls-4, .cls-5, .cls-6, .cls-7, .cls-8, .cls-9, .cls-10, .cls-11, .cls-12, .cls-13, .cls-14, .cls-15, .cls-16, .cls-17, .cls-18, .cls-19, .cls-20, .cls-21 {
        stroke-width: 0px;
      }

      .cls-2 {
        fill: #573b0e;
      }

      .cls-3 {
        fill: url(#Unnamed_Pattern_20);
      }

      .cls-4 {
        fill: #050301;
      }

      .cls-5 {
        fill: #ffd97a;
      }

      .cls-6 {
        fill: #294700;
      }

      .cls-7 {
        fill: url(#Unnamed_Pattern_17);
      }

      .cls-8 {
        fill: url(#Unnamed_Pattern_16);
      }

      .cls-9 {
        fill: #8c8c8c;
      }

      .cls-10 {
        fill: url(#Unnamed_Pattern_18);
      }

      .cls-11 {
        fill: url(#Unnamed_Pattern_15);
      }

      .cls-12 {
        fill: none;
      }

      .cls-13 {
        fill: #362509;
      }

      .cls-14 {
        fill: #fff2d1;
      }

      .cls-15 {
        fill: url(#Unnamed_Pattern_23);
      }

      .cls-16 {
        fill: #407000;
      }

      .cls-17 {
        fill: url(#Unnamed_Pattern_14);
      }

      .cls-18 {
        fill: #c40;
      }

      .cls-19 {
        fill: #528f00;
      }

      .cls-20 {
        fill: url(#Unnamed_Pattern_21);
      }

      .cls-21 {
        fill: url(#Unnamed_Pattern_22);
      }
    </style>
    <pattern id="Unnamed_Pattern_21" data-name="Unnamed Pattern 21" x="0" y="0" width="314.98" height="314.98" patternTransform="translate(-316.38 -299.43)" patternUnits="userSpaceOnUse" viewBox="0 0 314.98 314.98">
      <g>
        <rect class="cls-12" width="314.98" height="314.98"/>
        <rect class="cls-16" width="314.98" height="314.98"/>
      </g>
    </pattern>
    <pattern id="Unnamed_Pattern_20" data-name="Unnamed Pattern 20" x="0" y="0" width="314.98" height="314.98" patternTransform="translate(-316.38 -299.43)" patternUnits="userSpaceOnUse" viewBox="0 0 314.98 314.98">
      <g>
        <rect class="cls-12" width="314.98" height="314.98"/>
        <rect class="cls-2" width="314.98" height="314.98"/>
      </g>
    </pattern>
    <pattern id="Unnamed_Pattern_23" data-name="Unnamed Pattern 23" x="0" y="0" width="314.98" height="314.98" patternTransform="translate(-316.38 -299.43)" patternUnits="userSpaceOnUse" viewBox="0 0 314.98 314.98">
      <g>
        <rect class="cls-12" width="314.98" height="314.98"/>
        <rect class="cls-13" width="314.98" height="314.98"/>
      </g>
    </pattern>
    <pattern id="Unnamed_Pattern_15" data-name="Unnamed Pattern 15" x="0" y="0" width="314.98" height="314.98" patternTransform="translate(-316.38 -299.43)" patternUnits="userSpaceOnUse" viewBox="0 0 314.98 314.98">
      <g>
        <rect class="cls-12" width="314.98" height="314.98"/>
        <rect class="cls-5" width="314.98" height="314.98"/>
      </g>
    </pattern>
    <pattern id="Unnamed_Pattern_17" data-name="Unnamed Pattern 17" x="0" y="0" width="314.98" height="314.98" patternTransform="translate(-316.38 -299.43)" patternUnits="userSpaceOnUse" viewBox="0 0 314.98 314.98">
      <g>
        <rect class="cls-12" width="314.98" height="314.98"/>
        <rect class="cls-9" width="314.98" height="314.98"/>
      </g>
    </pattern>
    <pattern id="Unnamed_Pattern_22" data-name="Unnamed Pattern 22" x="0" y="0" width="314.98" height="314.98" patternTransform="translate(-316.38 -299.43)" patternUnits="userSpaceOnUse" viewBox="0 0 314.98 314.98">
      <g>
        <rect class="cls-12" width="314.98" height="314.98"/>
        <rect class="cls-4" width="314.98" height="314.98"/>
      </g>
    </pattern>
    <pattern id="Unnamed_Pattern_19" data-name="Unnamed Pattern 19" x="0" y="0" width="314.98" height="314.98" patternTransform="translate(-316.38 -299.43)" patternUnits="userSpaceOnUse" viewBox="0 0 314.98 314.98">
      <g>
        <rect class="cls-12" width="314.98" height="314.98"/>
        <rect class="cls-6" width="314.98" height="314.98"/>
      </g>
    </pattern>
    <pattern id="Unnamed_Pattern_18" data-name="Unnamed Pattern 18" x="0" y="0" width="314.98" height="314.98" patternTransform="translate(-316.38 -299.43)" patternUnits="userSpaceOnUse" viewBox="0 0 314.98 314.98">
      <g>
        <rect class="cls-12" width="314.98" height="314.98"/>
        <rect class="cls-19" width="314.98" height="314.98"/>
      </g>
    </pattern>
    <pattern id="Unnamed_Pattern_16" data-name="Unnamed Pattern 16" x="0" y="0" width="314.98" height="314.98" patternTransform="translate(-316.38 -299.43)" patternUnits="userSpaceOnUse" viewBox="0 0 314.98 314.98">
      <g>
        <rect class="cls-12" width="314.98" height="314.98"/>
        <rect class="cls-18" width="314.98" height="314.98"/>
      </g>
    </pattern>
    <pattern id="Unnamed_Pattern_14" data-name="Unnamed Pattern 14" x="0" y="0" width="314.98" height="314.98" patternTransform="translate(-316.38 -299.43)" patternUnits="userSpaceOnUse" viewBox="0 0 314.98 314.98">
      <g>
        <rect class="cls-12" width="314.98" height="314.98"/>
        <rect class="cls-14" width="314.98" height="314.98"/>
      </g>
    </pattern>
  </defs>
  <path class="cls-20" d="m21.55,133.71l-4.57,7.55c-.4.66-1.22.93-1.93.62l-3.01-1.29-3.09,1.08c-2.94,1.03-6.2-.09-7.88-2.71h0c-2-3.11-1.11-7.24,1.98-9.26l11.42-7.46,7.09,11.47Z"/>
  <path class="cls-20" d="m145.75,119.92l8.71-1.37c.76-.12,1.5.34,1.72,1.08l.95,3.14,2.82,1.66c2.68,1.58,3.93,4.8,3.01,7.77h0c-1.09,3.53-4.82,5.52-8.36,4.46l-13.06-3.92,4.21-12.81Z"/>
  <path class="cls-3" d="m124.13,113.09s24.75,6.08,24.06,6.06c-.69-.03-2.7,14.56-2.7,14.56l-24.29-1.01s2.39-23.97,2.66-21.79"/>
  <path class="cls-15" d="m50.61,207.22s-7.7-80.1-11.65-101.84c0,0,77.36-51.09,76.18-53.01-1.18-1.92,6.55,87.66,6.55,87.66l41.58,24.99-10.06,14.93-44.17-18.67-39.27,5.2-.61,40.72h-18.56Z"/>
  <polygon class="cls-11" points="120.81 129.78 43.37 138.21 38.96 105.38 118.2 96.64 120.81 129.78"/>
  <polygon class="cls-7" points="38.56 57.4 20.36 59.77 19.54 53.53 37.75 51.16 38.56 57.4"/>
  <polygon class="cls-7" points="22.08 63.73 16.75 64.43 14.81 49.57 20.15 48.87 22.08 63.73"/>
  <polygon class="cls-7" points="104.6 48.88 122.89 47.29 122.35 41.02 104.06 42.61 104.6 48.88"/>
  <polygon class="cls-7" points="122.05 51.53 127.42 51.07 126.12 36.13 120.76 36.6 122.05 51.53"/>
  <path class="cls-21" d="m52.3,212.38h23.67c1.43,0,2.45-1.4,2-2.77h0c-.51-1.53-1.62-2.79-3.07-3.49l-5.37-2.57-19.13,1.11.17,6.02c.03.94.8,1.69,1.74,1.69Z"/>
  <polygon class="cls-20" points="38.96 105.38 118.2 96.64 111.57 5.59 25.18 17.37 38.96 105.38"/>
  <path class="cls-1" d="m47.07,41.22s31.72-6.15,55.27-7.55c0,0-27.32-3.35-55.27,7.55Z"/>
  <path class="cls-1" d="m61.14,65.92c.25,1.93-.43,3.61-1.53,3.75-1.1.14-2.19-1.3-2.44-3.23-.25-1.93.43-3.61,1.53-3.75,1.1-.14,2.19,1.3,2.44,3.23Z"/>
  <path class="cls-1" d="m100.41,63.52c.25,1.93-.43,3.61-1.53,3.75-1.1.14-2.19-1.3-2.44-3.23-.25-1.93.43-3.61,1.53-3.75,1.1-.14,2.19,1.3,2.44,3.23Z"/>
  <path class="cls-10" d="m105.54,72.4c.12,1.26-2.44,2.52-5.71,2.82s-6.01-.47-6.13-1.73c-.12-1.26,2.44-2.52,5.71-2.82,3.27-.3,6.01.47,6.13,1.73Z"/>
  <path class="cls-10" d="m66.42,76.01c.12,1.26-2.44,2.52-5.71,2.82-3.27.3-6.01-.47-6.13-1.73-.12-1.26,2.44-2.52,5.71-2.82,3.27-.3,6.01.47,6.13,1.73Z"/>
  <path class="cls-6" d="m63.91,83.9c2.06,3.04,5.02,5.26,8.26,6.52,3.27,1.22,6.83,1.49,10.33,1.07,3.51-.35,6.9-1.47,9.8-3.39,2.81-2.01,5.1-4.94,6.12-8.48-.2,3.7-2.24,7.27-5.18,9.72-1.49,1.21-3.2,2.13-4.98,2.82-.89.35-1.82.55-2.73.83-.93.16-1.86.36-2.8.48-3.74.42-7.71.03-11.17-1.63-3.44-1.65-6.32-4.49-7.65-7.95Z"/>
  <path class="cls-15" d="m22.33,18.09c.82,5.44,1.59,13.82-.87,16.47,0,0,10.6.48,13.95-9.14l3.68,3.06s-1.65-2.14,0-4.6c0,0,1.96,1.54,4.97,3.66,0,0-.27-6.58,2.78-8.93,0,0,5.95,4.8,6.98,9.17,0,0-.07-5.64,0-7.99l3.59,4.1v-5.28s6.35,9.26,11.52,7.92c0,0,0-3.45,1.18-6.04l3.7,4.47s-1.23-4.47,0-7.52c0,0,3.92.71,5.46,5.17,0,0,9.87-4.94,9.64-11.05l4.47,5.41s-.49-2.72-2.12-5.41c0,0,5.17,3.53,6.35,6.35v-5.41s7.52,7.29,10.81,6.58v-5.17c0-.94,2.85,6.37,10.34,3.29,0,0-3.76-1-2.3-11.61.05-.35-.04-.7-.04-1.04-.03-2.79-2.51-4.9-5.27-4.5L26.49,12.46c-2.71.4-4.56,2.92-4.15,5.63Z"/>
  <path class="cls-1" d="m65.06,31.08s.72,7.89,2.75,10.76c0,0-1.32-8.61-2.75-10.76Z"/>
  <path class="cls-1" d="m76.73,87.82s-1.12,6.01.17,8.72c0,0,.71-6.71-.17-8.72Z"/>
  <path class="cls-1" d="m87.62,87.02s1.51,5.92,3.82,7.84c0,0-2.18-6.39-3.82-7.84Z"/>
  <path class="cls-1" d="m69.81,86.58s-2.52,3.56-2.17,6.1c0,0,2.37-4.26,2.17-6.1Z"/>
  <path class="cls-1" d="m82.12,89.46s-.74,4.3.66,6.45c0,0,.3-4.87-.66-6.45Z"/>
  <path class="cls-1" d="m91.77,85.12s1.34,4.15,3.58,5.4c0,0-1.99-4.45-3.58-5.4Z"/>
  <path class="cls-1" d="m94.7,82.32s2.56,2.29,4.92,2.08c0,0-3.22-2.18-4.92-2.08Z"/>
  <path class="cls-1" d="m57.64,33.83s-1.4,4.78,1.51,8.61l-1.51-8.61Z"/>
  <path class="cls-1" d="m78.21,30.6s2.15,4.42,1.67,8.85c0,0-1.91-2.15-1.67-8.85Z"/>
  <path class="cls-1" d="m86.82,30.6s.96,3.87.6,6.6c0,0-1.2-3.25-.6-6.6Z"/>
  <path class="cls-1" d="m94.59,30.6s1.32,1.55.72,5.02c0,0-.96-3.23-.72-5.02Z"/>
  <path class="cls-15" d="m92.61,53.96s8.35-.36,13.63,2.35c0,0,1.21-3.01-1.98-5.32,0,0,1.87-2.2,1.1-3.3,0,0-1.86,2.86-5.82,2.97l1.58-1.87s-8.72-3.52-8.5,5.17Z"/>
  <path class="cls-15" d="m63.91,58.61s-8.35-.36-13.63,2.35c0,0-1.21-3.01,1.98-5.32,0,0-1.87-2.2-1.1-3.3,0,0,1.86,2.86,5.82,2.97l-1.58-1.87s8.72-3.52,8.5,5.17Z"/>
  <path class="cls-8" d="m72.89,101.64c.94.95,9.04,5.87,9.04,5.87l-1.98,26.21,7.12,9.72.54-6.2,1.91.99,2.25-8.43-5.12-22.49,8.05-8.06-21.81,2.41Z"/>
  <polygon class="cls-17" points="83.8 100.51 75.26 109.96 39.67 112.39 38.96 104.15 82.8 100.59 83.8 100.51"/>
  <polygon class="cls-17" points="93.57 108.13 83.8 100.51 118.2 96.64 118.77 103.79 93.57 108.13"/>
  <path class="cls-3" d="m40.28,167.62l-6.96-61.18c-.45-3.95,3.03-7.23,6.95-6.54h0c11.37,1.98,20.46,10.55,23.12,21.78l6.49,27.45c1.03,4.34-1.4,8.76-5.62,10.21l-23.98,8.27Z"/>
  <polygon class="cls-3" points="35.01 101.41 9.61 123.07 22.42 138.21 48.09 118.25 35.01 101.41"/>
  <path class="cls-3" d="m110.85,98.66l3.48,51.21h23.72l-14.44-53.35c-.86-3.18-3.97-5.22-7.24-4.73h0c-3.35.5-5.75,3.49-5.52,6.87Z"/>
  <path class="cls-3" d="m49.82,206.74s15.11-2.61,22.37-1.91v-9.1s-14.91-.45-24.4,3.09l2.04,7.92Z"/>
  <path class="cls-21" d="m162.72,184.32l14.49-18.72c.88-1.13.39-2.8-.97-3.27h0c-1.52-.54-3.2-.43-4.64.3l-5.32,2.67-10.83,15.81,4.86,3.55c.76.56,1.82.4,2.4-.34Z"/>
  <path class="cls-3" d="m157.24,182.4s6.69-13.12,11.69-18.43l-7.19-5.57s-9.48,11.51-12.49,21.19l8,2.81Z"/>
  <polygon class="cls-15" points="128.37 114.14 133.54 133.21 136.8 133.35 130.47 114.66 128.37 114.14"/>
</svg>