<?xml version="1.0" encoding="UTF-8"?>
<svg id="Layer_1" data-name="Layer 1" xmlns="http://www.w3.org/2000/svg" viewBox="0 0 156.57 106.17">
  <defs>
    <style>
      .cls-1 {
        fill: #70163c;
      }

      .cls-1, .cls-2, .cls-3, .cls-4 {
        stroke-width: 0px;
      }

      .cls-2 {
        fill: #ffbbdb;
      }

      .cls-3 {
        fill: #fff;
      }

      .cls-4 {
        fill: #f0f1f7;
      }
    </style>
  </defs>
  <path class="cls-3" d="m154.6,32.98c-.07-.09-.16-.17-.29-.22-.12-.09-.24-.13-.36-.14-5.81-2.18-8.83,5.33-11.85,8.85-2.41,2.81-5.26,5.36-8.49,7.22,2.37-11.16,1.65-23.2-4.07-33.02-3.49-5.66-7.94-9.8-14.08-12.44C109.91.83,103.81-.16,97.77.02c-10.82.33-21.54,4.33-28.39,13-3.92,4.96-6.28,10.94-8.23,16.9-1.1,3.37-2.04,6.79-2.93,10.22-.55,2.11-1.01,4.27-1.58,6.39-6.15,4.48-15.3,5.77-22.72,5.7-3.06-.03-6.16-.55-8.19,2.24-1.48,2.03-1.52,4.73.23,6.61,1.96,2.11,5.2,2.5,7.91,2.57,3.59.09,7.21-.28,10.75-.86,1.25-.2,2.5-.48,3.73-.82-1.9,2.27-3.98,4.38-6.14,6.35-5.47,4.99-11.42,7.91-18.72,9.23-3.88.7-7.82,1.01-11.75,1.26-2.41.15-6.13-.26-8.16,1.41-1.46,1.2-1.46,3.11-.3,4.51,1,1.2,2.29,1.62,3.67,1.78-1.46.28-2.89.62-4.21,1.15C1.29,88.27-.03,89.37,0,91.08c.05,3.15,3.53,4.43,6.87,4.9-.25.18-.48.39-.66.64-.99,1.32-.37,2.77.76,3.73,3.84,3.28,10.7,4.03,15.47,4.69,13.78,1.89,28.06,1.24,41.81-.62,13.7-1.85,27.05-5.75,39.06-12.72,11.69-6.8,20.51-17.88,26.04-30.13,5.28-.85,10.41-2.72,14.84-5.75,4.44-3.04,8.21-7.18,10.57-12.03,1.61-3.31,3.17-8.11-.16-10.8Z"/>
  <path class="cls-4" d="m18.21,90.02c2.47-.15,6.12-.8,8.47-1.55,3.43-1.09,5.61-2.42,7.14-3.77-5.31.85-14.41,2.29-20.3,2.11-3.38-.1-7.22-.49-10.24-2.11,0,.01.01.02.02.03,1,1.2,2.29,1.62,3.67,1.78-1.46.28-2.89.62-4.21,1.15-.33.13-.65.29-.95.48,5.39.96,10.89,2.2,16.4,1.87Z"/>
  <path class="cls-4" d="m26.43,98.58c3.23-1.07,4.8-1.81,6.57-3.75-5.95.54-14.36,2.04-21.43,1.45-1.6-.13-3.31-.21-5.04-.34.11.02.23.04.34.05-.25.18-.48.39-.66.64-.84,1.11-.52,2.32.28,3.25,3.18.54,6.43.84,9.55.61,4.88-.36,7-.78,10.39-1.9Z"/>
  <g>
    <path class="cls-1" d="m86.17,36.97c.64-.15,1.25-.4,1.8-.78,3.85-2.61,3.05-9.04-1.34-10.52-4.7-1.58-9.5,3.38-7.48,7.98,1.14,2.58,4.32,3.93,7.02,3.31Z"/>
    <path class="cls-1" d="m112.65,36.97c.64-.15,1.25-.4,1.8-.78,3.85-2.61,3.05-9.04-1.34-10.52-4.7-1.58-9.5,3.38-7.48,7.98,1.14,2.58,4.32,3.93,7.02,3.31Z"/>
  </g>
  <g>
    <path class="cls-2" d="m76.52,42.34c.41-.09.8-.26,1.15-.5,2.46-1.67,1.95-5.79-.86-6.73-3.01-1.01-6.08,2.16-4.79,5.11.73,1.65,2.76,2.51,4.49,2.12Z"/>
    <path class="cls-2" d="m121.13,42.34c.41-.09.8-.26,1.15-.5,2.46-1.67,1.95-5.79-.86-6.73-3.01-1.01-6.08,2.16-4.79,5.11.73,1.65,2.76,2.51,4.49,2.12Z"/>
  </g>
  <path class="cls-1" d="m105.65,38.32c-.02-.09-.05-.17-.14-.25-.9-.81-2.18-.81-3.34-.73-2.36.15-4.56.03-6.94-.16-1.46-.12-3.85-.64-4.98.69-.86,1.01-.49,2.42.15,3.43,1.9,2.98,6.17,3.73,9.41,3.22,2.77-.44,7.12-2.75,5.83-6.2Z"/>
  <path class="cls-4" d="m59.13,56.15c-1.91.95-3.5,2.49-5.44,3.46-2.16,1.08-4.36,1.56-6.67,2.14-.86.22-.7,1.64.21,1.58,4.16-.3,10.37-2.73,12.56-6.52.25-.44-.24-.87-.66-.66h0Z"/>
  <path class="cls-4" d="m132.14,52.03c-1.06.75-1.3,2.16-1.72,3.34-.58,1.67-1.15,3.34-1.72,5.01-.36,1.04,1.29,1.49,1.64.45.53-1.58,1.06-3.15,1.58-4.73.4-1.22,1.15-2.58.75-3.86-.07-.21-.34-.36-.54-.22h0Z"/>
</svg>