<?xml version="1.0" encoding="UTF-8"?>
<svg id="Layer_1" data-name="Layer 1" xmlns="http://www.w3.org/2000/svg" viewBox="0 0 114.95 167.27">
  <defs>
    <style>
      .cls-1 {
        fill: #70163c;
      }

      .cls-1, .cls-2, .cls-3, .cls-4 {
        stroke-width: 0px;
      }

      .cls-2 {
        fill: #ffbbdb;
      }

      .cls-3 {
        fill: #fff;
      }

      .cls-4 {
        fill: #f0f1f7;
      }
    </style>
  </defs>
  <path class="cls-3" d="m113.2,70.1c-.04-.06-.09-.13-.16-.18-.07-.08-.15-.13-.23-.17-1.72-1.22-3.83-1.08-5.85-.71-3.61.67-7.05,2.12-10.51,3.28-4.03,1.35-8.21,2.07-12.44,2.39,2.55-3.23,5.56-6.19,8.37-9.23,2.77-3,5.35-6.13,7.7-9.47,7.71-11.55,5.31-26.84-4.9-36.03-10.74-9.65-24.51-10.83-37.86-6.66-6.85,2.14-13.26,5.02-19.4,8.6,2.15-2.75,4.5-5.35,7.05-7.74,2.43-2.27,5.58-4.22,6.82-7.46.79-2.07.36-4.74-1.66-5.94-2.58-1.53-6.02-.61-8.46.71-5.63,3.04-10.65,7.95-14.85,12.7-4.32,4.89-8.04,10.3-11.21,16C2.59,53.56-2.77,82.55,1.37,108.99c2.08,13.26,6.89,26.78,13.28,38.56,2.48,4.57,6.33,11.6,12.2,12.05,2.26.17,4.37-.9,5.76-2.65.86-1.07,1.28-2.25,1.57-3.59.26-1.21.38-2.73,1.5-3.53,1.51-1.08,2.63-.24,3.32,1.16,1.13,2.28.83,5.06,1.95,7.46,1.45,3.09,3.3,4.76,6.68,5.46,2.49.52,5.52.9,7.56-.93,2.3-2.05,2.59-5.44,2.62-8.32.02-2.18.36-7.49,4.17-5.8,1.75.77,2.58,4.19,3.2,5.86.99,2.65,1.73,5.25,3.54,7.47,2.41,2.97,4.84,4.88,8.76,5.07,3.22.16,5.8-2.06,7.54-4.55,10.14-14.45,1.35-34.12-3.4-48.78-2.55-7.89-4.78-16.31-3.9-24.66,7.82-.35,15.59-1.72,23.03-4.24,5.23-1.77,19.02-7.6,12.43-14.93Z"/>
  <path class="cls-4" d="m35.68,149.83c1.51-1.08,2.63-.24,3.32,1.16,1.13,2.28.83,5.06,1.95,7.46.33.72.69,1.35,1.09,1.92-.07-.28-.14-.55-.2-.83-1.6-7.22-4.18-13.59-5.91-20.79-.69-2.85-1.25-3.88-1.75-6.55-.47-2.54-1.02-5-2.14-4.43-1.1.56-1.91,2.88-2.12,3.93-1.4,7.06,1.13,14.49,3.44,21.14.18.51.37,1.02.55,1.54.1-.33.18-.66.26-1.01.26-1.21.38-2.73,1.5-3.53Z"/>
  <path class="cls-4" d="m64.23,148.77c-2.02-4.94-2.43-7.02-4.43-10.74-1.35-2.51-3.85-10.35-5.44-13.6-1.29-2.63-2.62,1.79-2.58,9.52.03,4.71,1.41,9.35,2.88,13.8.86,2.61,1.95,5.12,3.16,7.57,0-.22.01-.45.01-.67.02-2.18.36-7.49,4.17-5.8,1.75.77,2.58,4.19,3.2,5.86.99,2.65,1.73,5.25,3.54,7.47.62.76,1.24,1.45,1.88,2.06-2.73-5.26-4.15-10-6.39-15.48Z"/>
  <g>
    <path class="cls-1" d="m56.27,35.27c.57.32,1.19.54,1.85.64,4.6.66,8.35-4.62,6.1-8.67-2.4-4.34-9.29-3.91-10.9.85-.9,2.67.54,5.81,2.95,7.18Z"/>
    <path class="cls-1" d="m75.83,53.13c.57.32,1.19.54,1.85.64,4.6.66,8.35-4.62,6.1-8.67-2.4-4.34-9.29-3.91-10.9.85-.9,2.67.54,5.81,2.95,7.18Z"/>
  </g>
  <g>
    <path class="cls-2" d="m45.53,32.74c.36.21.76.35,1.18.41,2.95.43,5.34-2.96,3.91-5.55-1.54-2.78-5.95-2.5-6.98.55-.58,1.71.35,3.72,1.89,4.59Z"/>
    <path class="cls-2" d="m78.47,62.82c.36.21.76.35,1.18.41,2.95.43,5.34-2.96,3.91-5.55-1.54-2.78-5.95-2.5-6.98.55-.58,1.71.35,3.72,1.89,4.59Z"/>
  </g>
  <path class="cls-1" d="m62.98,41.99c-3.36-1.02-6.8,1.02-8.08,4.18-1.26,3.1.12,7.06,3.54,7.97,3.6.95,7.97-2.31,8.91-5.7.4-2.98-1.51-5.58-4.37-6.45Z"/>
  <path class="cls-4" d="m21.66,34.88c2.5-.64,4.76-3.63,6.8-5.15,2.55-1.91,5.31-3.41,7.96-5.16.85-.56.12-1.73-.78-1.34-2.93,1.28-5.66,3.25-8.18,5.2-1.99,1.54-5.42,3.65-6.06,6.2-.04.15.1.29.25.25h0Z"/>
  <path class="cls-4" d="m77.52,88.42c.87-1.01.49-2.74.77-4.01.37-1.68,1.49-3.06,1.85-4.69.11-.51-.45-1.07-.95-.73-1.42.97-2.08,3.08-2.47,4.7-.32,1.34-.95,3.72.22,4.74.16.14.42.18.58,0h0Z"/>
</svg>