<?xml version="1.0" encoding="UTF-8"?>
<svg id="Layer_1" data-name="Layer 1" xmlns="http://www.w3.org/2000/svg" viewBox="0 0 140.03 126.19">
  <defs>
    <style>
      .cls-1 {
        fill: #70163c;
      }

      .cls-1, .cls-2, .cls-3, .cls-4 {
        stroke-width: 0px;
      }

      .cls-2 {
        fill: #ffbbdb;
      }

      .cls-3 {
        fill: #fff;
      }

      .cls-4 {
        fill: #f0f1f7;
      }
    </style>
  </defs>
  <path class="cls-3" d="m137.64,62.21s-.02-.02-.03-.03c-.03-.04-.06-.09-.1-.13-4.06-4.52-9.8-6.18-15.66-6.45-5.89-.28-12.76.78-18.32-1.58-5.75-2.44-9.3-7.23-11.92-12.68-3.05-6.34-5.83-12.81-9.01-19.09-3.2-6.3-6.82-11.89-12.73-15.93C64.73,2.81,58.79.33,52.53.04c-10.98-.51-22.72,3.5-29.84,12.19-7.92,9.68-9.54,24-8.21,36,.64,5.76,1.86,11.6,3.63,17.29-.84-.36-1.7-.71-2.55-1.06-3.31-1.36-7.21-4.16-10.97-3.48-7.07,1.28-4.83,8.36-.86,11.84,3.02,2.65,6.81,4.59,10.35,6.43,3.8,1.97,7.73,3.71,11.78,5.09.18.06.45.17.77.31,1.49,2.48,3.11,4.87,4.85,7.13,9.64,12.52,21.96,22.14,36.28,28.75,7.06,3.26,14.62,5.64,22.45,5.67,3.63.01,7.29-.48,10.74-1.61,2.43-.8,4.8-1.94,5.41-4.65.69-3.08-1.47-6.66.07-9.57,1.79-3.37,7.1-2.39,10.21-2.53,5.68-.24,11.84-2.94,13.26-8.96.6-2.53.17-5.05-1.37-7.15-1.15-1.57-2.77-2.79-2.73-4.89.05-2.76,2.57-4.41,4.81-5.53,2.7-1.35,5.41-2.44,7.21-4.98,1.43-2.01,2.18-4.48,2.21-6.94.02-2.62-.8-5.1-2.39-7.17Z"/>
  <path class="cls-4" d="m98.27,100.5c-2.03-.57-5.12-1.81-4.63,1.43.47,3.14,2.09,6.16,3.79,8.79,2.41,3.71,5.5,6.85,8.75,9.83.07-.2.13-.4.18-.62.69-3.08-1.47-6.66.07-9.57,1.79-3.37,7.1-2.39,10.21-2.53,1.26-.05,2.54-.24,3.78-.54-7.46-1.09-14.76-4.72-22.15-6.8Z"/>
  <path class="cls-4" d="m132.05,77.71c-2.92.63-6.03,1.1-9.02,1.03-3.28-.08-5.39-.21-9.86-.41-2.36-.11-3.49.3-3.93.9-.34.46.18,1.53.61,2.11,1.95,2.65,4.82,4.61,7.75,6.11,3.36,1.72,6.98,2.8,10.61,3.84-1.11-1.38-2.44-2.56-2.4-4.46.05-2.76,2.57-4.41,4.81-5.53,2.7-1.35,5.41-2.44,7.21-4.98.09-.12.17-.26.25-.38-1.96.73-3.96,1.33-6.03,1.77Z"/>
  <g>
    <path class="cls-2" d="m25.12,54.1c.37-.19.71-.44,1-.76,1.98-2.22.49-6.09-2.47-6.32-3.16-.25-5.37,3.58-3.4,6.12,1.11,1.43,3.29,1.77,4.87.96Z"/>
    <path class="cls-2" d="m68.39,43.26c.37-.19.71-.44,1-.76,1.98-2.22.49-6.09-2.47-6.32-3.16-.25-5.37,3.58-3.4,6.12,1.11,1.43,3.29,1.77,4.87.96Z"/>
  </g>
  <g>
    <path class="cls-1" d="m32.63,44.42c.58-.3,1.11-.69,1.56-1.19,3.1-3.47.76-9.51-3.86-9.87-4.94-.39-8.39,5.59-5.31,9.56,1.73,2.23,5.14,2.76,7.61,1.5Z"/>
    <path class="cls-1" d="m58.32,37.98c.58-.3,1.11-.69,1.56-1.19,3.1-3.47.76-9.51-3.86-9.87-4.94-.39-8.39,5.59-5.31,9.56,1.73,2.23,5.14,2.76,7.61,1.5Z"/>
  </g>
  <path class="cls-1" d="m50.72,45.27c-1.98-2.87-7.56-7.02-9.99-2.01-1.96,4.02,3.73,8.84,4.74,12.43.46,1.65.97,3.71,2.99,4.03,1.59.25,3.26-1.01,4.02-2.3,2.18-3.67.26-8.88-1.76-12.16Z"/>
  <path class="cls-4" d="m92.6,48.58c-3.36-1.37-7.12-1.82-10.66-2.58-3.13-.68-6.29-1.64-9.47-2.05-3.9-.51-8.73,1.44-7.84,6.13.86,4.53,5.36,7.83,9.23,9.72,5.27,2.58,11.46,4.6,17.37,4.74.87.02,1.01-1.25.2-1.5-4.82-1.45-9.74-1.73-14.43-3.77-3.69-1.6-7.44-3.55-9.6-7.11-1.52-2.52-1.38-5.56,1.83-6.43,2.74-.74,6.01.52,8.68,1.1,4.71,1.02,9.74,2.56,14.59,2.44.42-.01.45-.55.09-.69h0Z"/>
  <path class="cls-4" d="m20.38,72.7c.66,2.03,1.53,4.01,2.56,5.88.87,1.59,1.83,3.7,3.44,4.64.43.25.96-.17.83-.64-.42-1.64-1.8-3.06-2.64-4.54-1.05-1.85-1.89-3.78-2.65-5.77-.36-.94-1.87-.57-1.55.43h0Z"/>
</svg>