<?xml version="1.0" encoding="UTF-8"?>
<svg id="Layer_1" data-name="Layer 1" xmlns="http://www.w3.org/2000/svg" viewBox="0 0 94.97 148.35">
  <defs>
    <style>
      .cls-1 {
        fill: #70163c;
      }

      .cls-1, .cls-2, .cls-3, .cls-4 {
        stroke-width: 0px;
      }

      .cls-2 {
        fill: #ffbbdb;
      }

      .cls-3 {
        fill: #fff;
      }

      .cls-4 {
        fill: #f0f1f7;
      }
    </style>
  </defs>
  <path class="cls-3" d="m94.12,64.9s-.02-.07-.02-.1c0-.04,0-.07,0-.11-1.5-10.68-4.34-21.22-7.98-31.37-3.07-8.57-6.98-16.49-13.74-22.79C65.88,4.49,58.12.95,49.3.22c-8.97-.74-18.05.31-26.1,4.52C7.31,13.08-.92,30.75.08,48.31c.59,10.41,3.6,20.87,9.33,29.62,4.77,7.29,11.17,13.15,17.94,18.55,3.64,2.91,7.25,5.9,10.79,8.93,5.59,4.8,4.47,13,1.7,19-1.32,2.85-3.11,5.2-4.95,7.71-.89,1.21-1.53,2.45-.92,3.95,1.51,3.69,5.25,2.58,7.99.93-1.12,3.74-2.63,9.44,2.29,9.25,3.06-.11,5.98-2.14,8.28-4.6-.69,1.8-1.15,3.61-.45,5.05,1.21,2.5,4.89,1.62,6.86.76,2.69-1.18,5.12-3.2,7.4-5.02,3.37-2.69,6.58-5.62,9.51-8.79,10.12-10.95,16.04-25.44,18.07-40.09,1.31-9.43,1.45-19.23.21-28.67Z"/>
  <path class="cls-4" d="m58.83,122.18c-2.49,7.63-6.83,17.17-10.27,22.71,1.44-.83,2.78-1.98,3.96-3.24-.69,1.8-1.15,3.61-.45,5.05.25.52.62.89,1.05,1.15,1.39-2.29,2.68-4.64,3.83-7.06,2.65-5.61,4.85-12.25,3.76-18.47-.17-1-1.57-1.11-1.88-.15Z"/>
  <path class="cls-4" d="m46.94,133.38c1.98-3.18,3.58-7.41,4.26-11.61.18-1.11-1.37-1.57-1.84-.55-1.21,2.66-2.7,5.06-4.39,7.41-1.78,2.46-6.01,6.65-9.75,9.19,1.82,1.42,4.57.48,6.73-.82-.38,1.26-.8,2.75-1.01,4.15,1.96-2.5,4.33-5.09,6-7.77Z"/>
  <g>
    <path class="cls-2" d="m18.33,49.85c.41-.09.8-.26,1.15-.5,2.46-1.67,1.95-5.79-.86-6.73-3.01-1.01-6.08,2.16-4.79,5.11.73,1.65,2.76,2.51,4.49,2.12Z"/>
    <path class="cls-2" d="m62.94,49.85c.41-.09.8-.26,1.15-.5,2.46-1.67,1.95-5.79-.86-6.73-3.01-1.01-6.08,2.16-4.79,5.11.73,1.65,2.76,2.51,4.49,2.12Z"/>
  </g>
  <path class="cls-1" d="m48.25,44.88c-.04-.07-.1-.12-.16-.16,0,0,0,0,0-.01-1.66-1.19-4.48-.2-6.34-.09-2.12.12-4.18-.09-6.27-.44-1.13-.19-2.25-.52-3.39-.26-5.04,1.15-.67,8.39.87,10.79,2.19,3.41,5.84,5.36,9.55,2.64,2.92-2.14,8.07-8.62,5.75-12.47Z"/>
  <path class="cls-1" d="m22.42,40.16c1.19-2.52,2.31-6.9,4.95-8.33,4.63-2.49,5.17,5.34,5.05,7.93-.06,1.3,2.09,1.64,2.32.31.65-3.88-.35-10.53-5.29-11.06-5.14-.55-7.97,6.32-8.95,10.33-.27,1.11,1.39,1.93,1.92.81h0Z"/>
  <path class="cls-1" d="m44.46,41.16c1.75-2.89,2.08-8.16,5.65-9.5,2.67-1,4.67,1.22,5.07,3.64.33,2.04-.18,4.12-.15,6.17.03,2.04,3.2.91,2.15-.58-.07-.09-.13-.19-.2-.28-.18-.25-.51-.45-.83-.34-.09.03-.18.06-.27.09.47.47.94.94,1.42,1.42.86-4.71.99-12.24-5.45-12.8-5.62-.49-8.37,7.01-9.18,11.42-.2,1.07,1.2,1.77,1.81.76h0Z"/>
  <path class="cls-4" d="m12.4,67.48c3.19,2.62,7.09,4.41,10.92,5.87,2.62,1,6.85,2.56,9.32.46,3.38-2.87.04-7.07-2.42-9.03-4.47-3.57-9.36-6.56-13.43-10.6-.85-.85-2.17.47-1.32,1.32,2.67,2.69,5.73,4.92,8.79,7.13,1.9,1.37,11.5,7.26,6.8,9.99-2.21,1.29-6.06-.51-8.17-1.35-3.21-1.29-6.57-2.8-9.28-4.99-.85-.69-2.07.51-1.21,1.21h0Z"/>
  <path class="cls-4" d="m72.7,52.62c-2.64,2.22-5.19,4.27-8.18,6.01-2.81,1.63-5.72,3.08-8.42,4.9-1.79,1.2-4.4,2.65-5.16,4.82-.72,2.04.31,3.95,2.11,5.01,3.15,1.86,8.28.85,11.65,0,4.97-1.25,10.69-3.11,14.53-6.63.63-.58-.18-1.61-.91-1.18-6.59,3.86-14.83,7.85-22.74,6.72-2.19-.31-3.67-2.49-2.16-4.46.76-.99,2.25-1.79,3.27-2.49,2.01-1.38,4.14-2.56,6.26-3.76,3.8-2.13,8.26-4.45,10.64-8.27.36-.57-.42-1.07-.89-.68h0Z"/>
</svg>