<?xml version="1.0" encoding="UTF-8"?>
<svg id="Layer_1" data-name="Layer 1" xmlns="http://www.w3.org/2000/svg" viewBox="0 0 150.68 115.79">
  <defs>
    <style>
      .cls-1 {
        fill: #70163c;
      }

      .cls-1, .cls-2, .cls-3, .cls-4 {
        stroke-width: 0px;
      }

      .cls-2 {
        fill: #ffbbdb;
      }

      .cls-3 {
        fill: #fff;
      }

      .cls-4 {
        fill: #f0f1f7;
      }
    </style>
  </defs>
  <path class="cls-3" d="m150.23,78.33c.05-.08.08-.16.1-.24.93-2.46-.04-5.02-2.02-6.68-1.51-1.27-3.39-1.78-5.33-1.99,2.1-.7,4.2-1.39,5.74-3.05,1.62-1.74,2.14-4.22.65-6.2-3.7-4.92-12.3-4.52-17.53-3.21-3.68.92-7.19,2.41-10.45,4.36-3.63,2.17-6.63,4.14-11.06,4.27-3.9.11-6.01-1.46-7.31-5.15-.2-.57-.37-1.15-.51-1.74,2.92.86,5.9,1.47,8.96,1.43,4.73-.05,16.96-2.41,13.25-9.85-.06-.12-.14-.21-.23-.28-1.55-1.82-3.84-2-6.12-1.92-3.48.12-7.06.75-10.51.02-4.12-.87-5.75-4.38-6.45-8.2-.14-2.34-.34-4.68-.6-7.01-.59-5.31-1.29-10.96-3.52-15.86C92.44,6.36,81.87.76,70.58.11c-6.36-.36-13.03.07-19.05,2.3-5.52,2.05-10.45,5.64-14.58,9.8-7.2,7.26-10.95,17-12.21,27.05-4.84-3.52-12.25-3.73-17.75-2.12-2.64.77-5.54,1.96-6.6,4.72-.85,2.24-.36,4.87,1.75,6.2,2.93,1.86,6.72.53,9.92.49,4.28-.05,7.09,1.31,9.35,4.99,2.56,4.16,3.51,8.78,5.19,13.28.32.87.66,1.73,1.01,2.59.56,1.84,1.19,3.66,1.9,5.45,2.57,6.53,5.37,13.1,9.36,18.92,8.27,12.07,23.11,19.61,37.4,21.57,7.9,1.08,15.79,0,23.44-2.07,7.36-1.99,13.37-5.88,19.22-10.66,5.88-4.81,11.49-11.88,19.85-10.79,2.95.38,6.1,1.14,8.77-.65,2.04-1.36,2.64-3.79,1.69-6.03-.77-1.8-2.24-2.95-3.9-3.82,1.96-.36,3.75-1.17,4.89-3.02Z"/>
  <path class="cls-4" d="m149.31,65.63c-4.48-.82-8.95.12-13.12,2.38-2.48,1.34-4.77,3.04-6.87,4.91-.32.28-2.61,2.1-2.53,2.42.08.34,2.85-.24,3.32-.36,5.12-1.25,9.41-3.45,14.84-3.08,1.51.1,3,.34,4.47.66-.32-.42-.69-.81-1.1-1.15-1.51-1.27-3.39-1.78-5.33-1.99,2.1-.7,4.2-1.39,5.74-3.05.22-.23.41-.48.59-.74Z"/>
  <path class="cls-4" d="m131.03,84.73c5,.55,10.12-.01,15.04,1.2,1.34.33,2.54.82,3.61,1.44.02-.73-.13-1.47-.44-2.2-.77-1.8-2.24-2.95-3.9-3.82,1.12-.21,2.18-.57,3.09-1.17-6.2.14-12.43.64-17.4,4.55Z"/>
  <path class="cls-1" d="m45.09,37.94c.64-.15,1.25-.4,1.8-.78,3.85-2.61,3.05-9.04-1.34-10.52-4.7-1.58-9.5,3.38-7.48,7.98,1.14,2.58,4.32,3.93,7.02,3.31Z"/>
  <path class="cls-1" d="m70.02,37.94c.64-.15,1.25-.4,1.8-.78,3.85-2.61,3.05-9.04-1.34-10.52-4.7-1.58-9.5,3.38-7.48,7.98,1.14,2.58,4.32,3.93,7.02,3.31Z"/>
  <g>
    <path class="cls-2" d="m35.45,43.31c.41-.09.8-.26,1.15-.5,2.46-1.67,1.95-5.79-.86-6.73-3.01-1.01-6.08,2.16-4.79,5.11.73,1.65,2.76,2.51,4.49,2.12Z"/>
    <path class="cls-2" d="m80.06,43.31c.41-.09.8-.26,1.15-.5,2.46-1.67,1.95-5.79-.86-6.73-3.01-1.01-6.08,2.16-4.79,5.11.73,1.65,2.76,2.51,4.49,2.12Z"/>
  </g>
  <path class="cls-1" d="m51.83,40.4c-1.96-1.92-7.45-3.25-8.99-.16-1.79,3.58,1.24,6.09,4.49,6.52-.08-.59-.16-1.18-.24-1.77-1.56.33-2.87.6-3.54,2.2-.51,1.22-.46,2.86.31,3.96,2,2.81,7.49,1.99,9.54-.29.6-.66-.16-1.73-.97-1.26-1.33.76-3.91,1.99-5.51,1.39-2.93-1.09-1.88-3.72.64-4.26,1.08-.23.68-1.65-.24-1.77-1.36-.18-3.22-1.15-3.12-2.75.09-1.38,1.18-1.83,2.39-1.89,1.73-.08,3.19,1.01,4.91.84.36-.04.6-.46.31-.75h0Z"/>
  <path class="cls-4" d="m25.3,40.13c.14.86,1.24,1.51,1.8,2.14.69.77,1.24,1.64,1.75,2.53.55.98,2.08.1,1.51-.88-.57-.98-1.2-1.92-1.95-2.77-.6-.67-1.58-1.84-2.55-1.75-.4.04-.61.33-.55.73h0Z"/>
  <path class="cls-4" d="m96.68,56.3c.47.56,1.16.97,1.78,1.33,1.03.59,2.75,1.61,3.91,1.02.41-.21.39-.73.13-1.04-.45-.53-1.14-.55-1.76-.77-.57-.2-1.12-.46-1.65-.76-.52-.29-1-.63-1.5-.95-.76-.48-1.43.56-.91,1.18h0Z"/>
</svg>