<?xml version="1.0" encoding="UTF-8"?>
<svg id="Layer_1" data-name="Layer 1" xmlns="http://www.w3.org/2000/svg" viewBox="0 0 116.63 141.12">
  <defs>
    <style>
      .cls-1 {
        fill: #70163c;
      }

      .cls-1, .cls-2, .cls-3, .cls-4 {
        stroke-width: 0px;
      }

      .cls-2 {
        fill: #ffbbdb;
      }

      .cls-3 {
        fill: #fff;
      }

      .cls-4 {
        fill: #f0f1f7;
      }
    </style>
  </defs>
  <path class="cls-3" d="m101.85,62.88c1.11-4.99,3.45-9.46,6.25-13.68,1.45-2.17,2.98-4.29,4.49-6.41,1.73-2.43,3.71-4.87,4-7.95.21-2.29-.86-4.57-3.05-5.46-2.4-.98-4.53-.32-6.75.73-4.94,2.34-8.85,6.75-11.77,11.58-.37-2.94-.74-5.88-1.12-8.82-1.38-10.82-5.22-21.96-15.26-27.62-10.96-6.17-25.49-7.31-36.68-1.21-12.06,6.57-18.14,19.4-20.2,32.51-.28,1.76-.48,3.53-.63,5.29-2.52-5.25-5.84-9.97-11.37-12.65-2.06-1-4.97-1.68-7.1-.45-2.6,1.5-3.21,4.88-2.27,7.49,1.35,3.75,4.47,7.1,6.65,10.41,2.39,3.64,4.66,7.36,6.65,11.23,4.22,8.19,6.99,16.98,6.97,26.26-.84,7.48-2.3,14.89-4.15,22.18-.91,3.59-2.02,7.12-2.96,10.71-.71,2.74-1.85,6.47-.8,9.25,1.55,4.11,6.94,6.7,10.82,8.03,2.96,1.01,5.72.49,8.64-.42,2.09-.65,4.21-1.55,6.45-1.54,2.37,0,4.36,1.14,6.23,2.47,3.01,2.14,5.63,4.55,9.27,5.61,3.13.92,6.56.95,9.7.09,7.18-1.97,12.52-10.6,20.55-9.23,5.89,1.01,10.3,6.2,16.7,4.57,3.43-.88,6.24-3.35,8.68-5.79,2.43-2.42,3.27-4.77,2.76-8.2-2.71-13.69-7.46-26.92-10.79-40.46,0-.03-.01-.05-.02-.08-.89-6.1-1.25-12.39.09-18.43Z"/>
  <path class="cls-4" d="m45.8,135.44c.25-8.77.27-26.55-4.08-25.46-1.92.48-3.45,3.72-4.32,5.25-1.77,3.12-3.23,6.42-4.55,9.75-1.18,2.97-2.26,5.98-3.18,9.04-.05.18-.11.37-.17.56.9-.17,1.81-.42,2.74-.71,2.09-.65,4.21-1.55,6.45-1.54,2.37,0,4.36,1.14,6.23,2.47.3.21.59.43.88.64Z"/>
  <path class="cls-4" d="m87.59,121.85c-1.76-4.45-3.66-9.37-6.77-13.08-.73-.87-1.96-2.32-3.27-2.12-2.85.44-2.26,6.16-2.18,8.16.27,6.17.37,12.37.41,18.57,2.65-1.59,5.43-2.65,8.65-2.1,2.69.46,5.08,1.79,7.48,2.95-1.31-4.17-2.73-8.31-4.34-12.37Z"/>
  <g>
    <path class="cls-1" d="m47.27,40.34c.64-.15,1.25-.4,1.8-.78,3.85-2.61,3.05-9.04-1.34-10.52-4.7-1.58-9.5,3.38-7.48,7.98,1.14,2.58,4.32,3.93,7.02,3.31Z"/>
    <path class="cls-1" d="m73.75,40.34c.64-.15,1.25-.4,1.8-.78,3.85-2.61,3.05-9.04-1.34-10.52-4.7-1.58-9.5,3.38-7.48,7.98,1.14,2.58,4.32,3.93,7.02,3.31Z"/>
  </g>
  <g>
    <path class="cls-2" d="m37.62,45.71c.41-.09.8-.26,1.15-.5,2.46-1.67,1.95-5.79-.86-6.73-3.01-1.01-6.08,2.16-4.79,5.11.73,1.65,2.76,2.52,4.49,2.12Z"/>
    <path class="cls-2" d="m82.23,45.71c.41-.09.8-.26,1.15-.5,2.46-1.67,1.95-5.79-.86-6.73-3.01-1.01-6.08,2.16-4.79,5.11.73,1.65,2.76,2.52,4.49,2.12Z"/>
  </g>
  <path class="cls-1" d="m72.4,43.93c0-.07-.03-.14-.08-.21-.03-.08-.08-.13-.13-.17-1.59-2.1-4.13-2.53-6.61-1.78-2.11.64-3.75,2.2-6.05,2.08-1.83-.1-3.63-.71-5.35-1.33-2.53-.91-5.72-2.1-8.04.01-1.99,1.82-1.1,4.74.2,6.72,3.16,4.83,10.2,7.06,15.71,6.12,4.72-.81,12.62-5.72,10.34-11.44Z"/>
  <path class="cls-4" d="m93.7,46.32c.54-.63.83-1.39,1.18-2.14.33-.71.75-1.32.62-2.12-.07-.42-.64-.61-.98-.4-.68.43-.87,1.26-1.17,1.98-.32.74-.65,1.42-.75,2.22-.07.55.76.86,1.1.46h0Z"/>
  <path class="cls-4" d="m21.38,42.73c.07.34.09.57.24.89.14.29.3.57.45.86.3.57.59,1.15.91,1.72.53.93,1.9.11,1.43-.84-.29-.58-.61-1.14-.92-1.71-.15-.28-.3-.58-.46-.85-.18-.29-.37-.44-.61-.67-.47-.47-1.16.02-1.05.61h0Z"/>
</svg>