<?xml version="1.0" encoding="UTF-8"?>
<svg id="Layer_1" data-name="Layer 1" xmlns="http://www.w3.org/2000/svg" viewBox="0 0 134.79 132.24">
  <defs>
    <style>
      .cls-1 {
        fill: #70163c;
      }

      .cls-1, .cls-2, .cls-3, .cls-4 {
        stroke-width: 0px;
      }

      .cls-2 {
        fill: #ffbbdb;
      }

      .cls-3 {
        fill: #fff;
      }

      .cls-4 {
        fill: #f0f1f7;
      }
    </style>
  </defs>
  <path class="cls-3" d="m121.63,52.72c-2.1-.57-4.21-.97-6.33-1.22.12-7.5-.88-14.99-3.09-22.26-4.72-14.65-16.1-25.52-31.33-28.41-13.27-2.52-27.86.69-37.93,9.94-11.08,10.19-15.29,24.34-15.89,39.06-.02.48-.03.95-.04,1.43-3.24.12-6.46.6-9.65,1.46-5.21,1.54-12.53,4.99-13.06,11.26-.18,2.18.88,4.12,2.92,4.96,3.04,1.26,6.05-.34,8.91-1.29,3.87-1.28,8.16-1.05,11.84.76.02,0,.03.02.05.03.08,1.15.14,2.31.17,3.46.26,8.25-2.04,15.73-7.96,21.68-3.35,3.37-7.46,6.03-11.89,7.74-3.07,1.18-7.45,1.6-8.28,5.47-.78,3.65,3.41,5.4,6.27,6.12,3.67.92,7.46.59,11.18.03-1.57,1.65-2.86,3.53-3.05,5.9-.23,2.88,1.2,5.29,4.06,6.03,6.67,1.72,14.64-.28,20.95-3.16-1,2.08-2.16,4.33-2.44,6.44-.21,1.62.41,2.9,1.93,3.57,2.08.91,4.89.42,7.05.12,3.02-.41,5.96-1.24,8.86-2.14,9.03-2.82,16.86-6.92,24.65-12.27,3.92-2.69,7.7-5.32,11.04-8.72,3.33-3.38,6.38-7.05,9.19-10.88,6.29-8.56,10.68-18.73,13.24-29.02.1-.39.18-.78.27-1.16,1.88-.65,3.86-.97,6.11-.76,4.09.39,13.38,5.98,15.18-1.11,1.77-6.98-7.81-11.54-12.94-13.06Z"/>
  <path class="cls-4" d="m37.06,128.15c-.05.38-.05.73,0,1.07,6.58-5.68,11.58-10.28,12.97-18.18.13-.76-.76-1.27-1.35-.77-2.85,2.39-4.94,3.73-8.16,5.95-2.23,1.54-6,3.87-8.39,5.14-2.77,1.48-5.58,2.89-8.45,4.15,5.37.04,11.06-1.62,15.81-3.79-1,2.08-2.16,4.33-2.44,6.44Z"/>
  <path class="cls-4" d="m20.87,113.82c2.92-1.28,13.03-5.31,13.92-9.96.17-.86-.74-1.53-1.52-1.13-5.27,2.7-10.75,5.02-16.43,6.68-4.6,1.34-9.54,2.34-14.36,1.97,1.21.75,2.67,1.24,3.88,1.55,3.67.92,7.46.59,11.18.03-.91.96-1.72,2-2.28,3.16,1.89-.72,3.77-1.48,5.62-2.29Z"/>
  <g>
    <path class="cls-1" d="m72.12,40.73c.64-.15,1.25-.4,1.8-.78,3.85-2.61,3.05-9.04-1.34-10.52-4.7-1.58-9.5,3.38-7.48,7.98,1.14,2.58,4.32,3.93,7.02,3.31Z"/>
    <path class="cls-1" d="m98.6,40.73c.64-.15,1.25-.4,1.8-.78,3.85-2.61,3.05-9.04-1.34-10.52-4.7-1.58-9.5,3.38-7.48,7.98,1.14,2.58,4.32,3.93,7.02,3.31Z"/>
  </g>
  <g>
    <path class="cls-2" d="m62.47,46.1c.41-.09.8-.26,1.15-.5,2.46-1.67,1.95-5.79-.86-6.73-3.01-1.01-6.08,2.16-4.79,5.11.73,1.65,2.76,2.52,4.49,2.12Z"/>
    <path class="cls-2" d="m107.08,46.1c.41-.09.8-.26,1.15-.5,2.46-1.67,1.95-5.79-.86-6.73-3.01-1.01-6.08,2.16-4.79,5.11.73,1.65,2.76,2.52,4.49,2.12Z"/>
  </g>
  <path class="cls-2" d="m93.39,43.98c-.05-.15-.15-.25-.26-.29-.16-.1-.37-.11-.54.08-1.84,2.2-6.19,1.92-8.82,2-.23,0-.51.21-.48.48.43,3.46,2.24,8.64,6.76,7.86,4.78-.83,4.39-6.69,3.34-10.13Z"/>
  <path class="cls-1" d="m75.89,42.39c-.2,2.96,6.43,4.37,8.59,4.56,4.1.37,8.06-.88,11.21-3.5.89-.74-.39-2.02-1.28-1.28-2.94,2.44-6.75,3.43-10.52,2.9-1.76-.25-3.47-.8-5-1.72-1.09-.65-1.52-1.46-2.78-1.26-.14.02-.22.17-.23.3h0Z"/>
  <path class="cls-1" d="m90.42,53.45c1.12-.16.59-2.62.46-3.27-.32-1.54-1.04-4.07-2.46-4.95-.28-.18-.72.12-.59.46.23.62.66,1.12.97,1.71.44.85.76,1.76,1,2.68.18.71.33,1.45.32,2.19,0,.37-.13.73.03,1.07.05.1.17.12.27.11h0Z"/>
  <path class="cls-4" d="m28.85,68.92c.63.68,1.51,1.04,2.13,1.77.65.76,1.08,1.66,1.6,2.49.6.95,2.02.11,1.5-.88-.86-1.65-2.58-4.59-4.8-4.41-.52.04-.8.63-.43,1.03h0Z"/>
  <path class="cls-4" d="m114.3,56.36c-.43,1.6-.54,3.27-.73,4.91-.22,1.8-.66,3.71-.47,5.52.08.74,1.06.92,1.32.18.53-1.55.55-3.29.73-4.91.2-1.83.52-3.68.46-5.52-.02-.73-1.1-.91-1.3-.18h0Z"/>
</svg>