<?xml version="1.0" encoding="UTF-8"?>
<svg id="Layer_1" data-name="Layer 1" xmlns="http://www.w3.org/2000/svg" viewBox="0 0 108.09 126.45">
  <defs>
    <style>
      .cls-1 {
        fill: #70163c;
      }

      .cls-1, .cls-2, .cls-3, .cls-4 {
        stroke-width: 0px;
      }

      .cls-2 {
        fill: #ffbbdb;
      }

      .cls-3 {
        fill: #fff;
      }

      .cls-4 {
        fill: #f0f1f7;
      }
    </style>
  </defs>
  <path class="cls-3" d="m107.46,112.92c-.02-.09-.05-.18-.11-.27-.04-.08-.08-.14-.13-.2-1.88-2.84-4.62-4.6-5.87-7.96-1.51-4.04-1.82-8.64-2.04-12.91-.45-8.43.21-16.87.55-25.29.5-12.71-.11-25.69-3.56-38-1.48-5.27-3.51-10.52-6.76-14.96-3.47-4.74-8.64-8.1-14.08-10.19-11.81-4.56-26.7-4.29-37.9,1.82-5.64,3.08-10.73,7.44-14.29,12.82-3.81,5.77-5.65,12.62-6.55,19.42-2.07,15.76.62,32.08-5.08,47.27-1.47,3.91-3.39,7.64-5.71,11.11-2.05,3.06-4.67,5.98-5.59,9.63-1.34,5.3,1.47,9.81,6.86,10.76,3.22.57,6.36-.12,9.55-.48,4.76-.55,8.18.35,11.45,3.96,4.19,4.64,9.42,7.81,15.91,5.94,6.11-1.77,11.17-8.75,17.95-5,4.48,2.48,8.22,7.32,13.92,5.79,5.91-1.59,9.84-8.52,16.51-5.22,2.72,1.35,5.1,2.86,8.28,2.55,2.69-.26,5.19-1.7,6.47-4.12,1.09-2.06,1.14-4.33.24-6.44Z"/>
  <path class="cls-4" d="m28.82,120.11c1.87-3.79,2.6-7.68,3.91-11.71.94-2.86,1.65-5.81,1.81-8.83.08-1.52.28-5.42-.45-3.98-.93,1.82-2.29,5.31-9.64,13.96-1.76,2.07-4.7,3.97-6.67,5.83,4.22-.3,7.38.71,10.4,4.05.21.23.42.46.64.68Z"/>
  <path class="cls-4" d="m64.25,117.53c-.83-4.45-2.16-18.2-4.57-21.02-3.16-3.7-2.08,17.45-2.57,22.83,1.56-.18,3.19.07,4.93,1.03,1.05.58,2.07,1.3,3.08,2.03-.28-1.62-.57-3.25-.87-4.87Z"/>
  <path class="cls-4" d="m86.96,109.29c-3.05-5.29-4.45-9.81-6.22-11.93-2.29-2.75-2.26,2.97,1.74,15.39.74,2.3,1.98,5.95,3.12,8.08,2.06-.92,4.26-1.2,6.87.1.73.36,1.44.74,2.15,1.09-1.35-1.86-2.64-4.01-7.67-12.73Z"/>
  <g>
    <path class="cls-1" d="m46.01,44.19c.64-.11,1.27-.33,1.84-.68,3.98-2.4,3.53-8.86-.78-10.57-4.61-1.83-9.67,2.87-7.89,7.57,1,2.64,4.1,4.15,6.83,3.68Z"/>
    <path class="cls-1" d="m72.46,45.61c.64-.11,1.27-.33,1.84-.68,3.98-2.4,3.53-8.86-.78-10.57-4.61-1.83-9.67,2.87-7.89,7.57,1,2.64,4.1,4.15,6.83,3.68Z"/>
  </g>
  <g>
    <path class="cls-2" d="m36.1,49.04c.41-.07.81-.21,1.18-.43,2.55-1.54,2.26-5.67-.5-6.77-2.95-1.17-6.19,1.84-5.05,4.85.64,1.69,2.63,2.66,4.37,2.36Z"/>
    <path class="cls-2" d="m80.65,51.42c.41-.07.81-.21,1.18-.43,2.55-1.54,2.26-5.67-.5-6.77-2.95-1.17-6.19,1.84-5.05,4.85.64,1.69,2.63,2.66,4.37,2.36Z"/>
  </g>
  <path class="cls-1" d="m48.52,45.77c-1.76,1.48.32,6.35,1.05,8.02,1.22,2.82,3.32,5.69,6.43,6.53,7.63,2.05,10.71-7.54,11.14-13.3.07-.92-1.33-1.2-1.6-.3-1.33,4.44-2.93,15.42-10.33,11.32-2.49-1.38-3.93-4.38-4.74-6.98-.45-1.45-.28-4.36-1.49-5.33-.13-.1-.34-.07-.45.03h0Z"/>
</svg>