<?xml version="1.0" encoding="UTF-8"?>
<svg id="Layer_1" data-name="Layer 1" xmlns="http://www.w3.org/2000/svg" xmlns:xlink="http://www.w3.org/1999/xlink" viewBox="0 0 161.01 201.16">
  <defs>
    <style>
      .cls-1 {
        fill: url(#Unnamed_Pattern_4);
      }

      .cls-1, .cls-2, .cls-3, .cls-4, .cls-5, .cls-6, .cls-7, .cls-8, .cls-9, .cls-10, .cls-11 {
        stroke-width: 0px;
      }

      .cls-2 {
        fill: #13001a;
      }

      .cls-3 {
        fill: url(#Unnamed_Pattern_3);
      }

      .cls-4 {
        fill: #050302;
      }

      .cls-5 {
        fill: #ffbdce;
      }

      .cls-6 {
        fill: none;
      }

      .cls-7 {
        fill: url(#Unnamed_Pattern_2);
      }

      .cls-8 {
        fill: #b5a58d;
      }

      .cls-9 {
        fill: #c2b197;
      }

      .cls-10 {
        fill: #d4d3b2;
      }

      .cls-11 {
        fill: url(#Unnamed_Pattern_8);
      }
    </style>
    <pattern id="Unnamed_Pattern_4" data-name="Unnamed Pattern 4" x="0" y="0" width="314.98" height="314.98" patternTransform="translate(-323.01 -305.2)" patternUnits="userSpaceOnUse" viewBox="0 0 314.98 314.98">
      <g>
        <rect class="cls-6" width="314.98" height="314.98"/>
        <rect class="cls-9" width="314.98" height="314.98"/>
      </g>
    </pattern>
    <pattern id="Unnamed_Pattern_3" data-name="Unnamed Pattern 3" x="0" y="0" width="314.98" height="314.98" patternTransform="translate(-323.01 -305.2)" patternUnits="userSpaceOnUse" viewBox="0 0 314.98 314.98">
      <g>
        <rect class="cls-6" width="314.98" height="314.98"/>
        <rect class="cls-10" width="314.98" height="314.98"/>
      </g>
    </pattern>
    <pattern id="Unnamed_Pattern_2" data-name="Unnamed Pattern 2" x="0" y="0" width="314.98" height="314.98" patternTransform="translate(-323.01 -305.2)" patternUnits="userSpaceOnUse" viewBox="0 0 314.98 314.98">
      <g>
        <rect class="cls-6" width="314.98" height="314.98"/>
        <rect class="cls-8" width="314.98" height="314.98"/>
      </g>
    </pattern>
    <pattern id="Unnamed_Pattern_8" data-name="Unnamed Pattern 8" x="0" y="0" width="314.98" height="314.98" patternTransform="translate(-323.01 -305.2)" patternUnits="userSpaceOnUse" viewBox="0 0 314.98 314.98">
      <g>
        <rect class="cls-6" width="314.98" height="314.98"/>
        <rect class="cls-2" width="314.98" height="314.98"/>
      </g>
    </pattern>
  </defs>
  <g>
    <path class="cls-1" d="m154.74,103.31l-1.91,3.72-4.12,8.01s4.6,6.92,4.31,12.74c-.29,5.82-5.15,11.04-.14,14.42l4.33-4.75s-1.99-3.8,2.58-12.72c4.57-8.92-5.03-21.42-5.03-21.42Z"/>
    <path class="cls-1" d="m133.64,88.97s21.95,12.96,21.3,12.74c-.65-.22-6.79,13.16-6.79,13.16l-22.96-7.97s9.2-22.27,8.83-20.1l-.37,2.17Z"/>
    <polygon class="cls-3" points="150.46 98.05 143.1 113.92 151.87 122.76 160.16 105.94 150.46 98.05"/>
    <polygon class="cls-3" points="142.11 90.84 135.24 113.66 138.71 115.55 150.46 95.36 142.11 90.84"/>
    <path class="cls-1" d="m32.09,93.13l.76,4.11,1.64,8.86s-6.4,5.3-7.8,10.96c-1.4,5.66,1.75,12.05-4.02,13.85l-2.77-5.8s3-3.07,1.2-12.93c-1.8-9.86,10.99-19.06,10.99-19.06Z"/>
    <path class="cls-1" d="m56.44,85.48s-24.75,6.08-24.06,6.06c.69-.03,2.7,14.56,2.7,14.56l24.29-1.01s-2.39-23.97-2.66-21.79l-.27,2.19Z"/>
    <path class="cls-3" d="m59.33,41.45c-.11-.14-.15-.24-.11-.3.05-.09.09.02.11.3Z"/>
    <path class="cls-3" d="m135.4,94.16c-.2,1.08-.4,2.3-.62,3.65-.51,3.27-1.08,7.3-1.67,11.84-.1.77-.2,1.56-.3,2.37-.24,1.83-.47,3.72-.71,5.68-.3,2.45-.61,5-.91,7.6-.31,2.68-.63,5.42-.94,8.2-.63,5.53-1.24,11.18-1.84,16.72-.38,3.59-.75,7.13-1.11,10.56-.53,5.08-1.03,9.91-1.47,14.28-.09.84-.17,1.66-.25,2.47-.21,2.12-.41,4.11-.6,5.94-.46,4.63-.81,8.24-1.02,10.37h0c-.14,1.4-.21,2.16-.21,2.16h-18.55l-.05-3.64-.07-4.64-.16-10.19-.05-3.63-.16-10.32-.12-8.3-39.27-5.21-1.71.72-19.41,8.21-6.87,2.9-13.28,5.61-2.9,1.23v-.02s-10.05-14.91-10.05-14.91l1-.6,7.35-4.42,8.76-5.27,6.26-3.76,12.55-7.54,1.22-.74,4.44-2.67s.26-3.01.67-7.91c0-.09.02-.19.03-.29.3-3.5.67-7.91,1.09-12.87.06-.8.13-1.62.2-2.45.2-2.47.42-5.05.64-7.7.32-3.92.66-8,.98-12.07,0-.03,0-.06,0-.08.11-1.4.23-2.8.34-4.2v-.03c.08-1.06.17-2.11.25-3.16.35-4.34.68-8.59.97-12.56.88-11.55,1.51-20.83,1.48-23.56v-.07c0-.1,0-.19,0-.27v-.13s.02.03.03.04c.04.04.07.09.12.14,1.25,1.44,6.83,5.57,14.44,10.94,1.07.75,2.17,1.52,3.31,2.32,6.3,4.4,13.63,9.41,20.91,14.34,6.75,4.57,13.45,9.07,19.28,12.96,5.95,3.98,10.99,7.33,14.2,9.47,2.4,1.58,3.78,2.49,3.78,2.49Z"/>
    <path class="cls-1" d="m122.06,201.16h-23.67c-1.43,0-2.45-1.4-2-2.77h0c.51-1.53,1.62-2.79,3.07-3.49l5.37-2.57,19.13,1.11-.17,6.02c-.03.94-.8,1.69-1.74,1.69Z"/>
    <path class="cls-3" d="m143.1,41.78c0,.16,0,.32,0,.48,0,1.61-.12,3.23-.34,4.86-.04.39-.1.79-.16,1.18l-1.47,9.4h0s-2.43,15.44-2.43,15.44l-1.36,8.7-1.34,8.52h0s-.59,3.8-.59,3.8l-4.64-.51-20.43-2.26s-.03,0-.04,0l-53.1-5.86-.75-.08h-.14s-.14-.03-.14-.03l.43-5.84v-.02l.11-1.56.92-12.54,1.72-23.56v-.04l.02-.26v-.1l.2-2.71c.21-2.91.72-5.73,1.48-8.42l.02-.04c.93-3.3,2.26-6.42,3.92-9.31.61-1.06,1.27-2.08,1.96-3.08h0c1.75-2.52,3.76-4.83,6-6.89,3.49-3.2,7.51-5.81,11.89-7.69,6.71-2.88,14.28-4.03,22.08-2.97,5.7.78,10.96,2.66,15.61,5.41,5.11,3.02,9.48,7.07,12.86,11.84,2.67,3.77,4.72,7.97,6.03,12.46,1.1,3.73,1.68,7.66,1.68,11.68Z"/>
    <path class="cls-4" d="m113.23,54.7c-.25,1.93.43,3.61,1.53,3.75,1.1.14,2.19-1.3,2.44-3.23.25-1.93-.43-3.61-1.53-3.75-1.1-.14-2.19,1.3-2.44,3.23Z"/>
    <path class="cls-4" d="m73.95,52.3c-.25,1.93.43,3.61,1.53,3.75,1.1.14,2.19-1.3,2.44-3.23.25-1.93-.43-3.61-1.53-3.75-1.1-.14-2.19,1.3-2.44,3.23Z"/>
    <path class="cls-5" d="m68.82,61.18c-.12,1.26,2.44,2.52,5.71,2.82,3.27.3,6.01-.47,6.13-1.73.12-1.26-2.44-2.52-5.71-2.82-3.27-.3-6.01.47-6.13,1.73Z"/>
    <path class="cls-5" d="m107.94,64.79c-.12,1.26,2.44,2.52,5.71,2.82,3.27.3,6.01-.47,6.13-1.73s-2.44-2.52-5.71-2.82c-3.27-.3-6.01.47-6.13,1.73Z"/>
    <path class="cls-1" d="m14.93,171.16L.44,152.44c-.88-1.13-.39-2.8.97-3.27h0c1.52-.54,3.2-.43,4.64.3l5.32,2.67,10.83,15.81-4.86,3.55c-.76.56-1.82.4-2.4-.34Z"/>
    <polygon class="cls-7" points="143.1 30.37 146.21 42.7 61.04 30.37 66.95 17.93 143.1 30.37"/>
    <polygon class="cls-3" points="43.92 85.96 39.32 112.02 34.12 110.62 30.72 90.23 43.92 85.96"/>
    <polygon class="cls-3" points="47.79 84.83 47.79 108.66 43.92 109.47 39.57 83.16 47.79 84.83"/>
    <path class="cls-1" d="m141.02,73.41c-2.3-.46-84.86-8.08-84.86-8.08l.54,17.96,82.85-1.5,1.47-8.39Z"/>
    <path class="cls-7" d="m138.09,98.89c-1.47-1.24-83.26-21.35-83.26-21.35l-4.36,18.78,84.93,22.25,2.69-19.67Z"/>
    <path class="cls-1" d="m135.4,125.51c-2.44,0-84.93-5.08-84.93-5.08l1.47-12.82,84.63,4.63-1.16,13.28Z"/>
    <polygon class="cls-1" points="130.76 150.77 45.86 130.91 50.47 120.43 130.76 133.58 130.76 150.77 130.76 150.77"/>
    <path class="cls-1" d="m128.12,152.98c-1.47,0-23.53,2.3-23.53,2.3l-.19,20.09,21.43-.31,2.29-22.08Z"/>
    <polygon class="cls-1" points="65.32 150.07 47.79 127.07 32.36 141.03 44.2 159 65.32 150.07"/>
    <polygon class="cls-1" points="28.21 143.52 41.02 161.87 24.05 167.51 18.91 146.59 28.21 143.52"/>
    <path class="cls-1" d="m141.02,57.85s-62.18-8.86-84.32-17.2l4.6-20.84s74.12,24.03,85.45,28.87l-5.73,9.17Z"/>
  </g>
  <path class="cls-1" d="m135.39,17.64l-62.44-6.59c3.49-3.2,7.51-5.81,11.89-7.69l37.69,2.44c5.11,3.02,9.48,7.07,12.86,11.84Z"/>
  <path class="cls-1" d="m125.58,177.53c-.21,2.12-.41,4.11-.6,5.94l-19.9,4.25-.16-10.19h20.66Z"/>
  <path class="cls-11" d="m71.3,39.94s5.8-2.55,9.29-3.02-8.48-6.5-9.29,3.02Z"/>
  <path class="cls-11" d="m116.23,40.52s8.05,7.08,8.96,6.56c.91-.52-2.46-11.67-8.96-6.56Z"/>
</svg>