<?xml version="1.0" encoding="UTF-8"?>
<svg id="Layer_1" data-name="Layer 1" xmlns="http://www.w3.org/2000/svg" viewBox="0 0 233.99 412.85">
  <defs>
    <style>
      .cls-1 {
        fill: #e14c81;
      }

      .cls-1, .cls-2, .cls-3, .cls-4, .cls-5, .cls-6, .cls-7, .cls-8 {
        stroke-width: 0px;
      }

      .cls-2 {
        fill: #785f9b;
      }

      .cls-3 {
        fill: #280743;
      }

      .cls-4 {
        fill: #fde0b3;
      }

      .cls-5 {
        fill: #cf024e;
      }

      .cls-6 {
        fill: #5a378a;
      }

      .cls-7 {
        fill: #4c3675;
      }

      .cls-8 {
        fill: #401f66;
      }
    </style>
  </defs>
  <g>
    <path class="cls-2" d="m154.48,189.85c1.31,0,14.37,14.8,25.69,36.57,11.32,21.77,35.27,67.92,35.27,67.92,0,0,13.38,4.79,16.54,5.37,3.16.57,1.72,18.96,1.44,20.11-.29,1.15-3.45-.29-4.88-2.3-1.44-2.01-4.31-7.18-4.31-7.18,0,0-6.03,18.39-7.76,20.11-1.72,1.72-3.16-2.01-3.73-4.31-.57-2.3-1.15-7.18-1.15-7.18l-17.81-8.62-9.48,2.3s0,11.2-.86,16.09c-.86,4.88-4.02.57-7.76-4.02-3.73-4.6-10.63-11.78-10.92-13.79-.29-2.01,3.73-8.33,3.73-8.33l5.17-5.17-17.24-34.19s-61.48,22.12-95.66-.57l1.44,28.15,2.3,16.95s-.57,4.02-3.16.57c-2.59-3.45-6.03-11.2-6.03-11.2l-14.36.29s-18.67,12.35-21.26,15.51c-2.59,3.16-.86,12.93-3.45,13.79-2.59.86-6.89-12.93-6.89-12.93,0,0-2.3,9.48-5.17,6.89s-3.16-12.07-4.02-15.51c-.86-3.45,2.01-10.92,8.62-14.65,6.61-3.73,27.87-13.79,27.87-13.79,0,0,13.5-38.5,17.24-54.01s11.6-23.64,13.21-24.99c1.61-1.35,87.4-7.88,87.4-7.88Z"/>
    <path class="cls-7" d="m85.04,224.19c10.13,1.01,20.36.65,30.44-.63,5.15-.66,10.37-1.45,15.41-2.71,5.2-1.3,10.14-3.41,14.95-5.73,1.19-.57,2.38-1.33,3.62-1.78.97-.36,2.05.39,2.96.76,2.03.81,4.06,1.6,6.13,2.31,3.75,1.29,7.64,2.39,11.61,2.72,1.97.16,3.97.12,5.91-.18-10.17-17.62-20.44-29.1-21.59-29.1,0,0-85.79,6.53-87.4,7.88-1.38,1.16-7.38,7.33-11.41,18.87,9.28,4.12,19.26,6.59,29.37,7.59Z"/>
    <path class="cls-2" d="m107.77,310.95l3.8,57.16s-1.12,8.48-8.48,12.73c-7.37,4.24-26.57,12.06-26.57,12.06l-14.74,1.56s-7.14,2.68-16.74-2.68c0,0-6.47-1.34-9.6-5.36-3.13-4.02-1.56-1.34-1.56-1.34,0,0-4.24-3.13-5.36-8.93s3.35-10.94,10.27-13.84c6.92-2.9,16.3-1.34,16.97-1.56.67-.22,15.18-10.49,15.18-10.49,0,0-5.14-30.59-4.02-31.03,1.12-.45,2.68-9.82,3.35-10.27.67-.45,20.54-2.46,20.54-2.46l16.97,4.47Z"/>
    <path class="cls-2" d="m168.99,381.51c-.04-.3-.18-.51-.36-.63,0-3-.56-6-1.34-8.95.33-.15.57-.46.54-.94-.56-8.05-1.13-16.1-1.67-24.15-.26-3.89-.43-7.77-.38-11.67.05-3.88.22-7.77.18-11.65-.05-4.36-.4-8.72-1.42-12.96-.13-.52-.51-.76-.93-.77-.04-.09-.09-.18-.16-.27-4.12-5.22-11.21-6.5-17.47-5.64-3.88.53-7.62,1.75-11.31,3.02-3.7,1.27-7.37,2.65-10.99,4.13-3.82,1.57-7.6,3.25-11.32,5.05-.65-.1-1.44.41-1.33,1.25,0,.09.02.19.05.28l10.88,52.3c-5.2,3.81-10.46,7.53-15.8,11.15-.11.07-.2.16-.27.25-.46.1-.92.19-1.39.29-2.52-.64-4.96-.39-7.29,1.16-2.28,1.53-4,3.79-4.9,6.39-1.83,5.32.6,11.67,5.67,14.22,2.61,1.32,5.66,1.63,8.46.84.12-.03.24-.07.36-.1,1.38-.08,2.66.14,4,.59,1.37.47,2.75.75,4.17.97,1.52.24,3.1.41,4.6.14.05.04.11.08.18.12,5.08,2.74,11.58,4.63,16.79,1.8.13.08.26.16.4.23-.23.54-.09,1.31.62,1.59,4.96,1.99,10.84,3.76,15.79.74,3.96-2.42,5.91-6.68,7.41-10.91.16-.08.31-.2.43-.38,3.58-5.14,8.73-10.76,7.79-17.49Z"/>
    <path class="cls-7" d="m72.23,330.4c6.54,1.72,13.56,1.32,20.21.54,5.54-.65,11-1.75,16.47-2.79l-1.14-17.2-16.97-4.47s-19.87,2.01-20.54,2.46c-.67.45-2.23,9.82-3.35,10.27-.4.16.01,4.27.7,9.45,1.46.75,3.01,1.32,4.61,1.74Z"/>
    <path class="cls-7" d="m111.1,317.6l2.72,13.06s.06.02.09.04c4.26,1.82,8.97,2.67,13.56,3.09,9.88.91,20.13-.07,29.58-3.14,3.02-.98,6.07-2.25,8.91-3.86.01-1.09.02-2.17,0-3.26-.05-4.36-.4-8.72-1.42-12.96-.13-.52-.51-.76-.93-.77-.04-.09-.09-.18-.16-.27-4.12-5.22-11.21-6.5-17.47-5.64-3.88.53-7.62,1.75-11.31,3.02-3.7,1.27-7.37,2.65-10.99,4.13-3.82,1.57-7.6,3.25-11.32,5.05-.65-.1-1.44.41-1.33,1.25,0,.09.02.19.05.28Z"/>
    <path class="cls-5" d="m173.73,295.4l-16.64-31.97c-.47-.9-1.59-.56-1.91.17-.31-.08-.66-.01-.96.27-2.09,1.96-5.19,2.8-7.85,3.69-2.84.95-5.73,1.75-8.65,2.43-5.96,1.38-12.03,2.25-18.12,2.86-12.17,1.21-24.83,2.32-36.88-.35-6.46-1.43-12.66-3.82-18.42-7.07-.64-.36-1.25-.01-1.5.5-.65-.54-1.87-.3-1.78.76,1.46,17,2.91,34,4.37,51,.09,1.11,1.37,1.42,2.01.55.6-.81,1.22-1.59,1.87-2.36.16-.01.34-.08.51-.21,1.12-.85,2.23-1.73,3.32-2.63.51-.42,1.01-.85,1.51-1.28.33-.28.87-.95,1.36-1.3.2.25.39.55.54.75.36.44.71.89,1.07,1.33l2.01,2.5c1.38,1.72,2.77,3.44,4.15,5.16.51.64,1.63.26,1.8-.48.35-1.43,1.36-2.5,2.29-3.6.92-1.09,1.84-2.18,2.75-3.27,3.84,2.43,7.84,5.21,10.51,8.88.5.69,1.75.73,1.97-.26.59-2.63,1.11-5.27,1.57-7.92,3.89,4.12,7.75,8.28,11.56,12.48.49.54,1.33.33,1.7-.22,2.25-3.37,4.33-6.85,6.23-10.43,1.71,1.38,3.42,2.75,5.13,4.13,1.05.85,2.1,1.69,3.15,2.54.82.66,1.71,1.65,2.86,1.5,1.04-.14,1.81-1.26,2.51-1.95.97-.95,1.93-1.9,2.9-2.85,1.63-1.6,3.25-3.21,4.88-4.81,0,0,.02.01.02.02,2.27,1.57,4.51,3.2,6.69,4.9,1.07.84,2.12,1.71,3.18,2.56.79.63,1.77,1.15,2.76.6.89-.5,1.19-1.6,1.54-2.48.49-1.25.98-2.51,1.47-3.76.5-1.28,1-2.56,1.51-3.84.27.27.6.46,1.01.61.73.26,1.3-.41,1.37-1.04.62-5.53,4.48-10,7.99-14.03.18-.21.27-.44.28-.67.4-.3.63-.83.33-1.39Z"/>
    <path class="cls-3" d="m114,228.53c-.38,2.37-.42,5.63-1.97,7.61-2.19,2.8-5.14-.64-6.33-2.55-.34-.54-.92-.6-1.38-.4-.36-.19-.8-.17-1.14.25-1.42,1.76-2.33,5.21-5.23,4.37-2.9-.84-3.61-4.25-4.17-6.81-.25-1.11-1.75-.94-2.08,0-.57,1.63-1.2,3.25-1.99,4.78-.6,1.18-1.73,2.98-3.34,2.5-1.33-.4-1.41-3.11-1.53-4.18-.2-1.84-.18-3.71.07-5.54.15-1.11-1.34-2.02-1.97-.83-.87,1.63-2.08,3.05-3.63,4.07-.72.47-1.64,1.08-2.51,1.18-1.14.13-1.18-.96-1.18-1.84,0-3.9,1.51-7.71,4.1-10.61.92-1.03-.6-2.57-1.53-1.53-1.77,1.99-3.11,4.29-3.91,6.83-.67,2.14-1.31,5.09-.55,7.29.93,2.71,3.8,2.14,5.81,1.06,1.13-.61,2.16-1.4,3.05-2.32,0,1.17.09,2.34.27,3.52.29,1.96.75,4.36,2.95,4.98,3.47.97,5.51-2.4,6.8-5.57.85,2.31,2.22,4.35,4.78,5.09,1.54.44,3.16.19,4.41-.83,1.18-.96,1.72-2.38,2.55-3.6.9,1.34,1.95,2.6,3.44,3.29,1.54.72,3.36.76,4.8-.22,2.89-1.96,3-6.36,3.49-9.44.22-1.36-1.86-1.94-2.08-.57Z"/>
    <path class="cls-3" d="m128.18,237.37c-.1-1.38-2.26-1.39-2.16,0,.1,1.35.5,2.58.96,3.85.42,1.19.99,2.55.65,3.83-.34,1.28-1.67,2.12-2.97,2.08-1.33-.04-2.45-.9-3.13-1.99-.52-.84-2.14-.58-2.01.55.2,1.84.56,4.82-1.3,5.98-2,1.24-6.05-.85-5.88-3.28.08-1.2-1.94-1.5-2.12-.29-.35,2.38-1.24,6.45-4.44,6.22-3.16-.22-4.08-3.78-3.95-6.38.07-1.39-2.09-1.39-2.16,0-.19,3.76,1.59,8.07,5.81,8.51,3.19.33,5.05-1.99,6.04-4.65,1.66,1.8,4.51,2.8,6.65,2.22,2.67-.73,3.5-3.2,3.62-5.69,2.09,1.3,4.82,1.36,6.74-.62,3.09-3.17-.08-6.85-.33-10.34Z"/>
    <path class="cls-3" d="m19.87,295.1c-3.52,2.55-7.12,5.01-10.56,7.66-1.49,1.14-1.54,2.86-1.6,4.62-.08,2.12.17,4.24.67,6.3.32,1.35,2.41.78,2.08-.57-.42-1.75-.63-3.52-.6-5.32.01-.81-.06-1.95.25-2.69.3-.71,1.29-1.19,1.91-1.64,2.98-2.16,5.96-4.32,8.95-6.48,1.11-.81.04-2.68-1.09-1.86Z"/>
    <path class="cls-3" d="m173.54,293.83c-.75-1.59-1.51-3.17-2.27-4.75-1.53-3.16-3.08-6.32-4.64-9.46-6.24-12.58-12.64-25.1-18.43-37.89-3.3-7.29-6.39-14.67-9.14-22.19-.47-1.29-2.56-.74-2.08.57,4.79,13.08,10.6,25.75,16.71,38.26.47.97.95,1.94,1.43,2.91-10.49,6.2-22.69,8.43-34.68,9.59-13.1,1.27-26.76,2.39-39.74-.37-6.66-1.41-13.06-3.89-18.67-7.78.41-10.14,1.67-20.25,3.78-30.19,1.46-6.89,3.33-13.68,5.58-20.35.45-1.32-1.64-1.89-2.08-.57-8.15,24.13-11.16,49.96-8.82,75.32.66,7.11,1.73,14.17,3.21,21.15.29,1.36,2.37.78,2.08-.57-2.94-13.87-4.22-28.07-3.84-42.24,10.51,6.88,23.35,8.97,35.74,9.02,6.91.03,13.82-.46,20.7-1.07,6.31-.55,12.63-1.33,18.81-2.75,6.6-1.51,13.03-3.81,18.88-7.24,5.37,10.86,10.87,21.65,16.04,32.6.21.44.54.88.26,1.33-.18.29-.57.51-.83.73-.61.52-1.18,1.07-1.73,1.65-1.11,1.18-2.11,2.5-2.95,3.88-1.55,2.55-2.54,5.36-3.03,8.28-.68-.3-1.46-.26-2.17.13-1.02.57-1.41,1.69-1.75,2.74-.82,2.53-1.9,4.94-3.26,7.21-4.03-2.97-8.06-5.93-12.09-8.9-.35-.26-1.03-.17-1.31.17-2.77,3.46-5.66,6.8-8.68,10.03-3.43-2.57-6.69-5.36-9.77-8.33-.48-.47-1.36-.41-1.7.22-1.09,2.05-2.28,4.04-3.58,5.96-.65.96-1.33,1.9-2.04,2.82-.37.49-.85.97-1.2,1.48-.15-.21-.49-.47-.61-.6-3.28-3.62-6.31-7.47-9.08-11.5-.28-.41-.7-.53-1.08-.47l-.4-6.3c-.02-.37-.2-.64-.43-.81,3.92.41,7.86.6,11.81.56,1.39-.01,1.39-2.17,0-2.16-8.93.08-17.82-1-26.47-3.22-1.35-.35-1.92,1.74-.57,2.08,4.62,1.19,9.32,2.05,14.05,2.6-.33.15-.57.46-.54.94l.46,7.27c-.04.11-.07.23-.08.36-.17,2.64-.53,5.25-1.06,7.83-3.7-3.01-7.19-6.25-10.46-9.71-.51-.54-1.32-.34-1.7.22-1.79,2.62-3.68,5.15-5.7,7.6-2.12-3.17-4.2-6.36-6.23-9.59-.4-.64-1.15-.66-1.7-.22-3.31,2.66-6.63,5.32-9.94,7.98-1.08.87.45,2.39,1.53,1.53l8.91-7.15c2.09,3.3,4.22,6.56,6.41,9.8.36.53,1.22.78,1.7.22,2.15-2.55,4.18-5.19,6.1-7.91,3.44,3.56,7.11,6.88,11.01,9.93.6.47,1.6.39,1.8-.48.63-2.65,1.07-5.34,1.33-8.05.14-.11.25-.26.3-.46,1.36,1.92,2.77,3.8,4.24,5.64.87,1.09,1.77,2.16,2.68,3.21.82.94,1.72,2.35,2.81,2.98,1.05.62,1.92.05,2.61-.78.88-1.06,1.71-2.17,2.52-3.29,1.39-1.93,2.65-3.95,3.81-6.03,2.92,2.74,6,5.31,9.21,7.71.39.29.78.25,1.07.03.38.25.88.27,1.28-.16,2.9-3.09,5.68-6.28,8.34-9.57,4.07,2.99,8.13,5.99,12.2,8.98.48.36,1.19.06,1.48-.39,1.13-1.76,2.11-3.61,2.92-5.54.39-.93.75-1.87,1.06-2.83.07-.21.64-2.27,1.12-1.83.44.4.97.35,1.36.09.6.14,1.38-.2,1.48-1,.37-2.98,1.41-5.86,2.98-8.41.79-1.28,1.71-2.47,2.76-3.55.91-.94,2.33-1.74,2.9-2.95.65-1.37-.35-2.84-.93-4.05Z"/>
    <path class="cls-3" d="m167.81,368.27c-.45-1.3-2.54-.74-2.08.57,1.85,5.34,3.93,11.32,2.63,17.02-1.23,5.41-5.82,8.87-8.72,13.34-1.54,2.39-2.8,4.99-4.8,7.05-1.75,1.8-3.93,3.2-6.34,3.91-4.71,1.39-10.18-.31-12.64-4.75-2.39-4.32-.17-10.45,4.79-11.64,1.35-.32.78-2.41-.57-2.08-4.91,1.18-7.98,6.45-7.28,11.33.28,1.96,1.14,3.71,2.36,5.18-3.02,1.29-6.65.91-9.74.04-1.54-.43-3.08-1.08-4.2-2.26-1.3-1.37-1.65-3.28-1.8-5.11-.29-3.44.02-6.81,2.78-9.18,2.23-1.91,5.32-2.66,8.14-1.78,1.33.42,1.9-1.67.57-2.08-5.46-1.71-11.88,1.69-13.34,7.27-.46,1.76-.47,3.6-.34,5.4.11,1.58.32,3.16.93,4.63-2.61-.04-5.31-.42-7.56-1.81-2.67-1.65-3.57-4.6-4.01-7.54-.47-3.13-.63-6.57,2.01-8.8,2.6-2.2,6.2-2.17,9.33-1.36,1.35.35,1.92-1.73.57-2.08-3.04-.79-6.27-.89-9.18.45-2.48,1.14-4.4,3.36-4.95,6.06-.59,2.89-.11,6.24.71,9.06.48,1.64,1.26,3.14,2.37,4.36-5.08.96-10.82-1.09-13.42-5.73-2.48-4.42-1.38-10.9,2.93-13.81,3.2-2.16,7.32-2.19,10.99-1.58,1.36.23,1.94-1.85.57-2.08-3.78-.63-7.77-.67-11.3,1.03-2.9,1.39-4.98,3.99-5.97,7.02-2.1,6.36.92,13.17,6.95,16.01,3.42,1.61,7.32,1.99,10.97.95.11-.03.21-.08.3-.13.1.07.21.13.31.19,2.64,1.53,5.79,1.94,8.79,1.95.32,0,.56-.11.73-.28,1.56,1.88,3.96,2.94,6.34,3.5,3.68.86,7.72,1.05,11.16-.71,2.01,1.65,4.54,2.71,7.1,2.97,5.99.6,11.53-3.05,14.76-7.86,1.81-2.69,3.29-5.49,5.39-7.99,1.96-2.34,4.1-4.64,5.37-7.46,3.11-6.86.73-14.51-1.59-21.22Z"/>
    <path class="cls-3" d="m75.37,391.38c-3.22,1.64-6.8,2.43-10.41,2.28-3.72-.16-6.78-1.9-9.1-4.79-1.91-2.37-3.14-5.58-2.38-8.63.68-2.72,2.84-5.3,5.75-5.65,1.36-.16,1.38-2.33,0-2.16-5.87.71-9.13,6.88-7.8,12.35.71,2.93,2.51,5.57,4.77,7.54.92.81,1.89,1.46,2.9,1.98-2.26.12-4.54-.17-6.76-.71-3.15-.76-6.39-2-8.17-4.87-1.74-2.8-2.76-6.92-2.16-10.18.53-2.88,2.4-5.31,4.96-6.69,1.22-.66.14-2.52-1.09-1.86-2.35,1.26-4.21,3.29-5.25,5.75-1.22,2.86-1.05,5.94-.34,8.91.44,1.84,1.09,3.69,2.1,5.29-3.56-1.8-6.88-4.22-7.94-8.25-1.41-5.38,1.69-10.62,6.49-13.01,1.24-.62.15-2.48-1.09-1.86-5.46,2.72-8.83,8.65-7.64,14.75,1.23,6.3,7.08,9.47,12.47,11.79.39.17.76.11,1.05-.07,2.04,1.32,4.43,2.07,6.8,2.57,3.64.78,7.43.94,11.03-.11.04-.01.08-.03.12-.04.54.07,1.09.11,1.66.13,3.87.1,7.68-.83,11.12-2.58,1.24-.63.15-2.49-1.09-1.86Z"/>
    <path class="cls-3" d="m224.44,308.73c-5.46-2.83-11.05-5.38-16.75-7.67-1.29-.52-1.85,1.57-.57,2.08,5.53,2.22,10.94,4.71,16.23,7.45,1.23.64,2.33-1.22,1.09-1.86Z"/>
  </g>
  <g>
    <path class="cls-2" d="m40.74,115.59s-5.97-42.73-6.91-64.09c-.94-21.36-5.03-41.79,5.03-38.02,10.05,3.77,41.47,23.88,51.84,50.27l19.48,1.57s23.88-46.81,28.59-54.67c4.71-7.85,6.6-14.14,13.51-8.48,6.91,5.66,26.71,49.95,24.19,93,0,0,32.99,41.16,37.07,45.56,4.08,4.4,8.48,8.17-25.13,10.05,0,0,8.8,15.39,13.2,28.59,4.4,13.2-3.77,9.43-18.22-.63l1.26,16.97s1.57,5.34-5.03,3.14c-6.6-2.2-18.85-9.74-18.85-9.74l-2.83,12.88s-.63,2.83-6.28-.94c-5.66-3.77-10.37-9.11-10.37-9.11,0,0-22.62,11-49.64,12.25-27.02,1.26-52.78-12.57-62.21-20.11,0,0-7.85-6.91-13.51-19.16-5.66-12.25-6.91-18.54.94-19.79,7.85-1.26,16.02-1.26,16.02-1.26,0,0,1.57-13.82,7.85-28.28Z"/>
    <path class="cls-1" d="m152.14,65.02c.41-9.57-.23-19.11-1.37-28.61-.57-4.74-1.22-9.47-1.9-14.2-.27-1.84-.64-3.82-2.09-5.13-1.29-1.18-3.06-1.53-4.64-.7-1.63.86-2.58,2.6-3.48,4.12-1.16,1.96-2.3,3.94-3.43,5.92-2.31,4.09-4.55,8.23-6.73,12.39-4.88,9.31-9.48,18.77-14.08,28.22-.19.39-.14.76.04,1.06,0,.25.1.51.36.73,6.52,5.53,13.05,11.07,19.57,16.6l9.7,8.23c.77.65,1.53,1.31,2.3,1.95.58.48,1.23,1.05,2.05.79.99-.32,1.11-1.56.52-2.19.14-.16.25-.37.28-.62,1.24-9.49,2.47-18.99,2.89-28.56Z"/>
    <path class="cls-1" d="m61.94,74.51c-4.26-9.28-8.21-18.7-11.81-28.26-1.75-4.65-3.35-9.35-5.04-14.02-.79-2.19-1.65-4.37-2.68-6.46-.93-1.88-2-4.1-3.59-5.53-1.34-1.2-3.41-1.61-4.6.02-1.15,1.56-.7,3.88-.6,5.66.31,5.16.74,10.31,1.23,15.46.99,10.3,2.26,20.57,3.42,30.85,1.17,10.44,2.21,20.9,2.73,31.4-.26.66-.51,1.32-.76,1.98-.27.74.28,1.24.9,1.3,0,.01,0,.02,0,.04.05,1.39,2.21,1.39,2.16,0-.04-.99-.08-1.99-.13-2.98,4.07-10.28,9.81-19.86,16.94-28.3.62,1.14,2.39.06,1.83-1.17Z"/>
    <path class="cls-8" d="m53.18,146.21c-.12-.23-.25-.46-.39-.68-.32-.51-.89-.6-1.34-.42-.87-.44-1.77-.76-2.47-.94-3.66-.98-7.51-.82-11.26-.6-2.05.12-4.1.25-6.14.37-2.03.12-4.1.36-6.14.24-.14,0-.28-.02-.41-.03-3.11.44-6.24.6-9.39.62-.02.03-.04.07-.05.1-.86.17-1.72.31-2.5.72-1.29.68-2.01,2.04-1.79,3.48.24,1.57,1.38,2.87,2.5,3.92,1.54,1.45,3.13,2.87,4.7,4.3,3.09,2.83,6.17,5.66,9.28,8.48,2.8,2.54,5.7,5.01,9.02,6.85.48.27,1.22.15,1.48-.39,2.32-4.81,6.63-8.06,10.03-12.06,2.27-2.68,4.24-5.92,4.82-9.38.4,0,.81-.17,1.01-.51,1-1.65.31-3.01-.94-4.05Z"/>
    <path class="cls-6" d="m50.59,154.36c-3.95-1.21-8.57,0-11.27,3.18-2.79,3.29-3.25,8.04-1.34,11.87.62,1.24,2.48.15,1.86-1.09-1.51-3.02-1.09-6.95,1.2-9.49,2.23-2.47,5.81-3.36,8.96-2.39,1.33.41,1.9-1.68.57-2.08Z"/>
    <path class="cls-6" d="m26.88,157.58c-1.24-1.3-2.75-2.03-4.54-2.22-1.62-.17-3.54-.25-4.83.89-1.04.92.49,2.45,1.53,1.53.8-.71,3.01-.36,3.94-.13,1.33.33,2.27,1.25,3.09,2.3,1.67,2.12,3.02,4.63,2.92,7.4-.05,1.39,2.11,1.39,2.16,0,.13-3.62-1.82-7.19-4.27-9.75Z"/>
    <path class="cls-4" d="m30.22,145.88c-1.45-.41-2.98-.36-4.42.05-.7.2-.99,1.09-.62,1.65-.22.47-.02,1.14.44,1.37,1.33.67,2.79,1.05,4.28.94,1.13-.08,2.84-.28,2.94-1.71.09-1.37-1.55-2-2.63-2.31Z"/>
    <path class="cls-4" d="m71.89,187.47c-1.62.08-3.22.25-4.82.48-.09.01-.17.03-.25.06-.21-.41-.43-.83-.64-1.24-.64-1.24-2.5-.15-1.86,1.09,1.46,2.84,2.92,5.68,4.38,8.53.39.76,1.45.64,1.86,0,1.61-2.48,2.74-5.23,3.34-8.12.26-1.28-1.57-1.87-2.02-.79Zm-2.77,5.01s.07-.05.11-.08c0,.1-.02.18-.02.24-.03-.06-.06-.11-.08-.17Z"/>
    <path class="cls-4" d="m101.27,181.93c-.19-.7-.98-.97-1.59-.65l-5.86,3.09s-.09.06-.13.09c-.11-.12-.22-.25-.32-.37-.9-1.06-2.43.48-1.53,1.53,2.99,3.5,6.13,6.86,9.4,10.09.66.65,1.86.18,1.84-.76-.06-4.4-.67-8.76-1.81-13.01Z"/>
    <path class="cls-4" d="m111.24,188.44c-.4-3.69-.8-7.38-1.2-11.07-.1-.93-1.1-1.42-1.84-.76-1.03.92-2.15,1.68-3.36,2.34-.07.04-.13.09-.19.14-.6.18-1.11.86-.74,1.6,1.51,3.05,3.35,5.88,5.49,8.52.57.7,1.94.14,1.84-.76Z"/>
    <path class="cls-4" d="m132.06,174.11c-2.21-4.21-4.25-8.51-6.09-12.89-.33-.78-1.49-1.17-1.97-.26-.63,1.18-1.36,2.28-2.28,3.26-.78.84-2.1,1.64-1.92,2.95-.55.41-.75,1.37.02,1.85,3.56,2.23,7.15,4.42,10.76,6.56.96.57,1.97-.55,1.48-1.48Z"/>
    <path class="cls-4" d="m40.25,184.85c-1.18.36-2.36.73-3.54,1.09-.66.2-1.57.36-2.04.91-.18-.24-.37-.49-.55-.73-.82-1.11-2.69-.03-1.86,1.09,2.12,2.87,4.38,5.63,6.79,8.26.68.74,1.77.11,1.84-.76.24-2.94.48-5.88.72-8.82.06-.69-.74-1.24-1.37-1.04Z"/>
    <path class="cls-5" d="m150.04,29.61c-.24-1.2-2.14-.92-2.12.29.1,5.54-.65,11.02-1.58,16.46-2.05-4.06-4.09-8.11-6.14-12.17-.57-1.13-2.24-.32-1.97.83,1.98,8.58,2.82,17.37,2.52,26.17-4.22-2.87-8.43-5.74-12.65-8.61-.99-.67-1.87.59-1.48,1.48,2.99,6.69,6.17,13.28,9.53,19.79-4.88-1.68-10.03-2.48-15.2-2.37-.93.02-1.43,1.17-.76,1.84,8.5,8.58,17.73,16.41,27.54,23.44.87.62,1.7-.33,1.54-1.17.31-.16.55-.46.58-.89.74-8.38,1.48-16.76,2.22-25.13.11-1.25.23-2.51.31-3.76.16-.17.27-.4.28-.69.59-11.9-.3-23.84-2.62-35.52Z"/>
    <path class="cls-5" d="m63.31,74.46c-2.55-6.65-5.16-13.28-7.84-19.88-2.57-6.34-5.08-12.75-7.95-18.96-1.4-3.02-3.1-5.93-5.6-8.16-.81-.72-2.05-.02-1.8,1.05,1.99,8.71,4.34,17.32,7.05,25.83-3.24-1.94-6.76-3.38-10.44-4.28-.85-.21-1.78.77-1.22,1.59,4.13,5.96,8.25,11.92,12.38,17.88-2.76,2.6-5.52,5.2-8.29,7.81-.63.59-.19,1.97.76,1.84,3.54-.46,7.07-.92,10.61-1.37-.49,2.64-1.23,5.22-2.21,7.73-.42,1.08,1.08,1.71,1.8,1.05,3.83-3.48,7.65-6.95,11.48-10.43.13-.12.22-.25.28-.38.66,0,1.29-.52.99-1.3Z"/>
    <ellipse class="cls-3" cx="51.3" cy="131.64" rx="4.41" ry="7.34"/>
    <path class="cls-3" d="m112.98,131.64c0,4.05-1.97,7.34-4.41,7.34s-4.4-3.29-4.4-7.34,1.97-7.34,4.4-7.34,4.41,3.29,4.41,7.34Z"/>
    <path class="cls-3" d="m135.3,150.16c-2.62-3.25-6.72-5.08-10.88-4.94-1.39.05-1.39,2.21,0,2.16,1.76-.06,3.46.28,5.01.96-.14.12-.25.29-.31.51-3.35,11.57-11.72,20.97-21.86,27.18-11.8,7.23-25.67,9.84-39.38,9.71-8.35-.08-16.66-1.11-24.86-2.64-.02-.03-.04-.07-.06-.1l-3.62-5.9c-.5-.82-1.34-1.82-1.35-2.83,0-.99.76-1.88,1.33-2.63,2.85-3.77,5.75-7.49,8.63-11.24,1.39-1.82,2.79-3.63,4.18-5.45,1.27-1.65,2.7-3.26,3.49-5.21.61-1.5.73-3.23-.3-4.58-.01-.02-.02-.03-.04-.04,1.9-.6,3.8-1.21,5.7-1.81.41-.13.85-.57.79-1.04-.52-4.43-1.04-8.86-1.56-13.29-.16-1.36-2.32-1.38-2.16,0,.49,4.18.98,8.35,1.47,12.53-2.2.7-4.4,1.39-6.6,2.09-.73-.23-1.51-.37-2.24-.49-8.92-1.48-18.16-.31-27.11.22-2.32.14-4.64.26-6.96.41-1.7.11-3.5.38-4.65,1.77-2.63,3.18.16,7.01,2.26,9.53,5.93,7.1,12.73,13.52,20.57,18.46.43.27.85.19,1.15-.05-.29,1.58.45,2.96,1.32,4.37,1.15,1.88,2.3,3.75,3.46,5.63-3.47,1.17-8.56,2.93-10.68-.74-.7-1.2-2.56-.12-1.86,1.09,3.03,5.23,9.74,2.76,14.23,1.36,15.06,2.82,30.71,4.07,45.8.74,12.49-2.76,24.38-8.99,32.96-18.61,4.6-5.16,8.12-11.22,10.05-17.88,0-.03.01-.06.02-.09.95.64,1.81,1.43,2.55,2.35.87,1.08,2.39-.45,1.53-1.53Zm-98.95,22.09c-.06-.23-.21-.44-.47-.61-6.46-4.08-12.18-9.19-17.29-14.85-1.26-1.39-2.5-2.81-3.67-4.28-1.05-1.31-2.21-3.01-1.71-4.77.52-1.84,2.66-1.79,4.21-1.88l6.38-.38c4.21-.25,8.42-.53,12.63-.74,4.22-.2,8.48-.28,12.68.3.72.1,1.83.17,2.8.44.21.3.56.49,1,.39.39.22.71.51.89.9.67,1.45-.7,3.35-1.51,4.46-2.51,3.44-5.19,6.76-7.78,10.14-1.48,1.93-2.96,3.86-4.45,5.79-1.23,1.61-2.84,3.24-3.72,5.1Z"/>
    <path class="cls-3" d="m175.63,94.94c-.98,5.63-2.57,11.13-4.77,16.41-.53,1.28,1.56,1.84,2.08.57,2.19-5.28,3.79-10.78,4.77-16.41.24-1.36-1.85-1.94-2.08-.57Z"/>
    <path class="cls-3" d="m89.51,61.48c-9.84,1.77-19.14,6.05-26.95,12.28-7.93,6.32-14.05,14.69-17.89,24.06-2.2,5.37-3.58,11.04-4.16,16.81-.14,1.38,2.02,1.37,2.16,0,1.98-19.69,14.23-37.25,31.95-46,4.89-2.41,10.1-4.1,15.46-5.07,1.37-.25.79-2.33-.57-2.08Z"/>
    <path class="cls-3" d="m152.44,36.49c-.74-5.54-1.75-11.03-3.03-16.47-.32-1.35-2.4-.78-2.08.57,4.42,18.89,5.59,38.49,3.48,57.78-.6,5.5-1.49,10.96-2.62,16.37-.28,1.36,1.8,1.94,2.08.57,4.05-19.31,4.8-39.26,2.17-58.83Z"/>
    <path class="cls-3" d="m184.76,191.02c-.27-4.36-.8-8.7-1.56-12.99-.24-1.37-2.32-.79-2.08.57.67,3.76,1.14,7.56,1.41,11.37.13,1.81.21,3.63.25,5.45.02.96.4,3.68-1.14,3.59-.84-.05-1.76-.75-2.48-1.14-.88-.48-1.76-.95-2.64-1.43-1.63-.89-3.27-1.77-4.9-2.66l-10.19-5.52c-.59-.32-1.42-.05-1.59.65-.62,2.58-1.23,5.16-1.85,7.74-.32,1.36-.65,2.72-.97,4.07-.11.44-.18.91-.39,1.32-.31.59-.55.53-1.08.14-2.15-1.57-4.13-3.45-6.18-5.15-2.12-1.77-4.23-3.54-6.35-5.31-.35-.3-.76-.32-1.11-.19-.31-.28-.76-.41-1.24-.18-18.52,8.83-39.34,12.58-59.79,10.99-5.82-.45-11.59-1.36-17.27-2.69-1.35-.32-1.93,1.77-.57,2.08,20.47,4.79,42.15,4.04,62.25-2.1,5.57-1.7,11-3.82,16.26-6.32,2.47,2.07,4.95,4.14,7.42,6.2,1.3,1.09,2.6,2.18,3.91,3.27.95.79,1.98,1.91,3.3,1.91,2.68,0,2.99-3.73,3.44-5.62.66-2.75,1.31-5.49,1.97-8.24,3.48,1.88,6.95,3.77,10.43,5.65,2.01,1.09,4.02,2.18,6.04,3.27,1.53.83,3.4,2.08,5.15,1.11,1.3-.72,1.66-2.24,1.73-3.61.1-2.06-.07-4.16-.19-6.22Z"/>
  </g>
</svg>